<svg xmlns="http://www.w3.org/2000/svg" xmlns:xlink="http://www.w3.org/1999/xlink" width="400" zoomAndPan="magnify" viewBox="0 0 300 60" height="80" preserveAspectRatio="xMidYMid meet" version="1.2"><defs><clipPath id="74148f1d10"><path d="M 210 9 L 235 9 L 235 48.71875 L 210 48.71875 Z M 210 9 "/></clipPath><clipPath id="92906040f0"><path d="M 207.824219 12 L 225 12 L 225 22 L 207.824219 22 Z M 207.824219 12 "/></clipPath></defs><g id="f7b620b108"><g style="fill:#ff6d4d;fill-opacity:1;"><g transform="translate(6, 42.827112)"><path style="stroke:none" d="M 4.28125 0.390625 C 3.4375 0.390625 2.566406 0.3125 1.671875 0.15625 C 0.785156 0.0078125 0.132812 -0.117188 -0.28125 -0.234375 L 0.59375 -5.359375 C 0.9375 -5.285156 1.332031 -5.179688 1.78125 -5.046875 C 2.238281 -4.921875 2.738281 -4.859375 3.28125 -4.859375 C 4.550781 -4.859375 5.457031 -5.203125 6 -5.890625 C 6.539062 -6.578125 6.921875 -7.691406 7.140625 -9.234375 L 9.875 -27.796875 L 15.421875 -27.796875 L 12.453125 -7.734375 C 12.191406 -5.960938 11.78125 -4.472656 11.21875 -3.265625 C 10.65625 -2.066406 9.828125 -1.15625 8.734375 -0.53125 C 7.640625 0.0820312 6.15625 0.390625 4.28125 0.390625 Z M 4.28125 0.390625 "/></g></g><g style="fill:#ff6d4d;fill-opacity:1;"><g transform="translate(21.379714, 42.827112)"><path style="stroke:none" d="M 8.140625 0.390625 C 7.253906 0.390625 6.394531 0.25 5.5625 -0.03125 C 4.726562 -0.320312 3.988281 -0.738281 3.34375 -1.28125 C 2.707031 -1.832031 2.226562 -2.507812 1.90625 -3.3125 C 1.59375 -4.125 1.507812 -5.066406 1.65625 -6.140625 L 3.578125 -19.875 L 9.171875 -19.875 L 7.34375 -6.84375 C 7.21875 -5.914062 7.398438 -5.15625 7.890625 -4.5625 C 8.378906 -3.976562 9.1875 -3.6875 10.3125 -3.6875 C 11.375 -3.6875 12.253906 -3.972656 12.953125 -4.546875 C 13.648438 -5.117188 14.066406 -5.914062 14.203125 -6.9375 L 16.03125 -19.875 L 21.578125 -19.875 L 18.78125 0 L 14.578125 0 L 14.5 -3.9375 C 14.101562 -2.769531 13.546875 -1.875 12.828125 -1.25 C 12.109375 -0.632812 11.332031 -0.207031 10.5 0.03125 C 9.675781 0.269531 8.890625 0.390625 8.140625 0.390625 Z M 8.140625 0.390625 "/></g></g><g style="fill:#ff6d4d;fill-opacity:1;"><g transform="translate(43.853358, 42.827112)"><path style="stroke:none" d="M 1.03125 0 L 3.984375 -19.875 L 9.40625 -19.875 L 9.015625 -17.328125 C 9.722656 -18.140625 10.609375 -18.832031 11.671875 -19.40625 C 12.734375 -19.976562 14.019531 -20.265625 15.53125 -20.265625 C 16.519531 -20.265625 17.5 -20.035156 18.46875 -19.578125 C 19.4375 -19.128906 20.117188 -18.378906 20.515625 -17.328125 C 21.316406 -18.234375 22.296875 -18.945312 23.453125 -19.46875 C 24.609375 -20 25.738281 -20.265625 26.84375 -20.265625 C 27.5625 -20.265625 28.269531 -20.140625 28.96875 -19.890625 C 29.675781 -19.640625 30.300781 -19.25 30.84375 -18.71875 C 31.394531 -18.195312 31.796875 -17.515625 32.046875 -16.671875 C 32.296875 -15.835938 32.328125 -14.832031 32.140625 -13.65625 L 30.125 0 L 24.578125 0 L 26.53125 -13.03125 C 26.644531 -13.800781 26.585938 -14.410156 26.359375 -14.859375 C 26.128906 -15.316406 25.800781 -15.648438 25.375 -15.859375 C 24.957031 -16.066406 24.488281 -16.171875 23.96875 -16.171875 C 23.269531 -16.171875 22.65625 -16.035156 22.125 -15.765625 C 21.601562 -15.503906 21.175781 -15.101562 20.84375 -14.5625 C 20.519531 -14.03125 20.296875 -13.347656 20.171875 -12.515625 L 18.328125 0 L 12.78125 0 L 14.78125 -13.53125 C 14.882812 -14.09375 14.8125 -14.566406 14.5625 -14.953125 C 14.3125 -15.347656 13.96875 -15.648438 13.53125 -15.859375 C 13.09375 -16.066406 12.640625 -16.171875 12.171875 -16.171875 C 11.679688 -16.171875 11.175781 -16.066406 10.65625 -15.859375 C 10.132812 -15.648438 9.675781 -15.335938 9.28125 -14.921875 C 8.894531 -14.503906 8.660156 -13.976562 8.578125 -13.34375 L 6.5625 0 Z M 1.03125 0 "/></g></g><g style="fill:#ff6d4d;fill-opacity:1;"><g transform="translate(77.650277, 42.827112)"><path style="stroke:none" d="M 0.25 6.1875 L 3.84375 -19.875 L 9.421875 -19.875 L 9.0625 -17.015625 C 9.5625 -17.628906 10.144531 -18.179688 10.8125 -18.671875 C 11.476562 -19.171875 12.210938 -19.5625 13.015625 -19.84375 C 13.828125 -20.125 14.660156 -20.265625 15.515625 -20.265625 C 16.960938 -20.265625 18.195312 -19.898438 19.21875 -19.171875 C 20.238281 -18.453125 20.96875 -17.335938 21.40625 -15.828125 C 21.851562 -14.328125 21.914062 -12.414062 21.59375 -10.09375 C 21.257812 -7.6875 20.632812 -5.707031 19.71875 -4.15625 C 18.800781 -2.613281 17.6875 -1.46875 16.375 -0.71875 C 15.070312 0.0195312 13.65625 0.390625 12.125 0.390625 C 11.507812 0.390625 10.9375 0.300781 10.40625 0.125 C 9.882812 -0.0507812 9.410156 -0.289062 8.984375 -0.59375 C 8.566406 -0.90625 8.195312 -1.257812 7.875 -1.65625 C 7.5625 -2.0625 7.300781 -2.503906 7.09375 -2.984375 L 5.84375 6.1875 Z M 11.34375 -3.734375 C 12.519531 -3.734375 13.578125 -4.238281 14.515625 -5.25 C 15.453125 -6.257812 16.066406 -7.863281 16.359375 -10.0625 C 16.617188 -11.976562 16.441406 -13.476562 15.828125 -14.5625 C 15.210938 -15.644531 14.28125 -16.1875 13.03125 -16.1875 C 11.632812 -16.1875 10.515625 -15.597656 9.671875 -14.421875 C 8.828125 -13.253906 8.289062 -11.800781 8.0625 -10.0625 C 7.914062 -8.9375 7.925781 -7.894531 8.09375 -6.9375 C 8.257812 -5.976562 8.609375 -5.203125 9.140625 -4.609375 C 9.671875 -4.023438 10.40625 -3.734375 11.34375 -3.734375 Z M 11.34375 -3.734375 "/></g></g><g style="fill:#5170ff;fill-opacity:1;"><g transform="translate(100.570308, 42.827112)"><path style="stroke:none" d="M 13.5625 0.390625 C 12.1875 0.390625 10.835938 0.21875 9.515625 -0.125 C 8.191406 -0.476562 6.984375 -1 5.890625 -1.6875 C 4.804688 -2.382812 3.910156 -3.25 3.203125 -4.28125 C 2.492188 -5.320312 2.066406 -6.539062 1.921875 -7.9375 L 7.671875 -7.9375 C 7.859375 -7.09375 8.222656 -6.378906 8.765625 -5.796875 C 9.304688 -5.222656 9.984375 -4.78125 10.796875 -4.46875 C 11.617188 -4.164062 12.53125 -4.015625 13.53125 -4.015625 C 14.5625 -4.015625 15.5 -4.140625 16.34375 -4.390625 C 17.1875 -4.648438 17.863281 -5.039062 18.375 -5.5625 C 18.894531 -6.082031 19.15625 -6.734375 19.15625 -7.515625 C 19.15625 -8.222656 18.945312 -8.800781 18.53125 -9.25 C 18.113281 -9.695312 17.550781 -10.0625 16.84375 -10.34375 C 16.132812 -10.625 15.332031 -10.851562 14.4375 -11.03125 L 9.625 -12.015625 C 7.53125 -12.410156 5.863281 -13.242188 4.625 -14.515625 C 3.394531 -15.796875 2.765625 -17.5 2.734375 -19.625 C 2.722656 -21.375 3.1875 -22.882812 4.125 -24.15625 C 5.0625 -25.4375 6.34375 -26.421875 7.96875 -27.109375 C 9.59375 -27.796875 11.410156 -28.140625 13.421875 -28.140625 C 15.816406 -28.140625 17.832031 -27.765625 19.46875 -27.015625 C 21.101562 -26.265625 22.34375 -25.253906 23.1875 -23.984375 C 24.039062 -22.710938 24.484375 -21.289062 24.515625 -19.71875 L 18.875 -19.71875 C 18.78125 -20.695312 18.488281 -21.472656 18 -22.046875 C 17.507812 -22.628906 16.882812 -23.046875 16.125 -23.296875 C 15.363281 -23.554688 14.492188 -23.6875 13.515625 -23.6875 C 12.773438 -23.6875 12.097656 -23.601562 11.484375 -23.4375 C 10.878906 -23.269531 10.363281 -23.035156 9.9375 -22.734375 C 9.519531 -22.429688 9.191406 -22.070312 8.953125 -21.65625 C 8.722656 -21.25 8.609375 -20.789062 8.609375 -20.28125 C 8.609375 -19.476562 8.878906 -18.828125 9.421875 -18.328125 C 9.960938 -17.828125 10.96875 -17.414062 12.4375 -17.09375 L 17.203125 -16.109375 C 18.910156 -15.773438 20.265625 -15.28125 21.265625 -14.625 C 22.273438 -13.976562 23.03125 -13.242188 23.53125 -12.421875 C 24.039062 -11.597656 24.375 -10.757812 24.53125 -9.90625 C 24.695312 -9.050781 24.78125 -8.269531 24.78125 -7.5625 C 24.78125 -6.0625 24.304688 -4.710938 23.359375 -3.515625 C 22.421875 -2.316406 21.113281 -1.363281 19.4375 -0.65625 C 17.757812 0.0390625 15.800781 0.390625 13.5625 0.390625 Z M 13.5625 0.390625 "/></g></g><g style="fill:#5170ff;fill-opacity:1;"><g transform="translate(126.677221, 42.827112)"><path style="stroke:none" d="M 14.515625 -15.984375 L 10.09375 -15.984375 L 10.125 -5.390625 C 10.125 -4.898438 10.1875 -4.535156 10.3125 -4.296875 C 10.4375 -4.054688 10.628906 -3.898438 10.890625 -3.828125 C 11.148438 -3.765625 11.488281 -3.734375 11.90625 -3.734375 L 14.578125 -3.734375 L 14.578125 -0.265625 C 14.316406 -0.148438 13.914062 -0.0390625 13.375 0.0625 C 12.832031 0.164062 12.070312 0.21875 11.09375 0.21875 C 9.351562 0.21875 8.003906 -0.00390625 7.046875 -0.453125 C 6.085938 -0.910156 5.421875 -1.539062 5.046875 -2.34375 C 4.679688 -3.15625 4.5 -4.09375 4.5 -5.15625 L 4.5 -15.984375 L 1.265625 -15.984375 L 1.265625 -19.875 L 4.6875 -19.875 L 6.09375 -25.875 L 10.09375 -25.875 L 10.09375 -19.90625 L 14.515625 -19.90625 Z M 14.515625 -15.984375 "/></g></g><g style="fill:#5170ff;fill-opacity:1;"><g transform="translate(142.729745, 42.827112)"><path style="stroke:none" d="M 9.734375 0.390625 C 8.804688 0.390625 7.894531 0.25 7 -0.03125 C 6.113281 -0.320312 5.304688 -0.738281 4.578125 -1.28125 C 3.847656 -1.832031 3.257812 -2.507812 2.8125 -3.3125 C 2.375 -4.125 2.15625 -5.066406 2.15625 -6.140625 L 2.15625 -19.875 L 7.765625 -19.875 L 7.765625 -6.84375 C 7.765625 -5.914062 8.066406 -5.15625 8.671875 -4.5625 C 9.273438 -3.976562 10.160156 -3.6875 11.328125 -3.6875 C 12.429688 -3.6875 13.304688 -3.972656 13.953125 -4.546875 C 14.597656 -5.117188 14.921875 -5.914062 14.921875 -6.9375 L 14.921875 -19.875 L 20.46875 -19.875 L 20.46875 0 L 16.25 0 L 15.59375 -3.9375 C 15.363281 -2.769531 14.929688 -1.875 14.296875 -1.25 C 13.660156 -0.632812 12.9375 -0.207031 12.125 0.03125 C 11.3125 0.269531 10.515625 0.390625 9.734375 0.390625 Z M 9.734375 0.390625 "/></g></g><g style="fill:#5170ff;fill-opacity:1;"><g transform="translate(165.357151, 42.827112)"><path style="stroke:none" d="M 9.78125 0.390625 C 7.113281 0.390625 5.035156 -0.53125 3.546875 -2.375 C 2.066406 -4.21875 1.328125 -6.78125 1.328125 -10.0625 C 1.328125 -12.132812 1.628906 -13.929688 2.234375 -15.453125 C 2.835938 -16.984375 3.726562 -18.164062 4.90625 -19 C 6.082031 -19.84375 7.523438 -20.265625 9.234375 -20.265625 C 9.953125 -20.265625 10.617188 -20.179688 11.234375 -20.015625 C 11.859375 -19.859375 12.425781 -19.640625 12.9375 -19.359375 C 13.445312 -19.078125 13.894531 -18.75 14.28125 -18.375 C 14.664062 -18.007812 14.984375 -17.613281 15.234375 -17.1875 L 15.234375 -28.578125 L 20.859375 -28.578125 L 20.859375 0 L 16.78125 0 L 16.15625 -4.078125 C 15.96875 -3.523438 15.710938 -2.984375 15.390625 -2.453125 C 15.078125 -1.929688 14.671875 -1.457031 14.171875 -1.03125 C 13.671875 -0.601562 13.054688 -0.257812 12.328125 0 C 11.609375 0.257812 10.757812 0.390625 9.78125 0.390625 Z M 11.015625 -3.65625 C 12.421875 -3.65625 13.472656 -4.144531 14.171875 -5.125 C 14.878906 -6.113281 15.234375 -7.78125 15.234375 -10.125 C 15.210938 -11.488281 15.046875 -12.617188 14.734375 -13.515625 C 14.429688 -14.410156 13.972656 -15.078125 13.359375 -15.515625 C 12.753906 -15.960938 11.988281 -16.1875 11.0625 -16.1875 C 9.84375 -16.1875 8.828125 -15.722656 8.015625 -14.796875 C 7.210938 -13.867188 6.8125 -12.3125 6.8125 -10.125 C 6.8125 -7.914062 7.1875 -6.285156 7.9375 -5.234375 C 8.695312 -4.179688 9.722656 -3.65625 11.015625 -3.65625 Z M 11.015625 -3.65625 "/></g></g><g style="fill:#5170ff;fill-opacity:1;"><g transform="translate(188.618972, 42.827112)"><path style="stroke:none" d="M 5.5 6.34375 C 4.132812 6.34375 3.171875 6.226562 2.609375 6 C 2.054688 5.78125 1.78125 5.671875 1.78125 5.671875 L 1.78125 2.09375 L 3.75 2.171875 C 4.601562 2.222656 5.289062 2.179688 5.8125 2.046875 C 6.34375 1.910156 6.742188 1.734375 7.015625 1.515625 C 7.296875 1.296875 7.492188 1.066406 7.609375 0.828125 C 7.722656 0.597656 7.804688 0.410156 7.859375 0.265625 L 8.234375 -0.828125 L 0.5 -19.875 L 6.0625 -19.875 L 10.828125 -6.921875 L 15.65625 -19.875 L 21.125 -19.875 L 13.078125 0.109375 C 12.378906 1.804688 11.644531 3.101562 10.875 4 C 10.113281 4.894531 9.285156 5.507812 8.390625 5.84375 C 7.503906 6.175781 6.539062 6.34375 5.5 6.34375 Z M 5.5 6.34375 "/></g></g><g style="fill:#5170ff;fill-opacity:1;"><g transform="translate(236.163741, 40.167972)"><path style="stroke:none" d="M 1.859375 0 L 1.859375 -3.984375 L 5.5625 -3.984375 L 5.5625 0 Z M 1.859375 0 "/></g></g><g style="fill:#5170ff;fill-opacity:1;"><g transform="translate(242.084514, 40.167972)"><path style="stroke:none" d="M 9.515625 0.34375 C 7.910156 0.34375 6.503906 0 5.296875 -0.6875 C 4.097656 -1.382812 3.164062 -2.398438 2.5 -3.734375 C 1.832031 -5.078125 1.5 -6.71875 1.5 -8.65625 C 1.5 -10.476562 1.804688 -12.078125 2.421875 -13.453125 C 3.046875 -14.828125 3.957031 -15.890625 5.15625 -16.640625 C 6.351562 -17.398438 7.804688 -17.78125 9.515625 -17.78125 C 11.128906 -17.78125 12.523438 -17.425781 13.703125 -16.71875 C 14.890625 -16.019531 15.8125 -14.988281 16.46875 -13.625 C 17.125 -12.269531 17.453125 -10.613281 17.453125 -8.65625 C 17.453125 -6.875 17.148438 -5.304688 16.546875 -3.953125 C 15.941406 -2.609375 15.050781 -1.554688 13.875 -0.796875 C 12.695312 -0.0351562 11.242188 0.34375 9.515625 0.34375 Z M 9.515625 -2.125 C 10.566406 -2.125 11.453125 -2.390625 12.171875 -2.921875 C 12.890625 -3.453125 13.429688 -4.210938 13.796875 -5.203125 C 14.171875 -6.191406 14.359375 -7.363281 14.359375 -8.71875 C 14.359375 -9.96875 14.191406 -11.085938 13.859375 -12.078125 C 13.535156 -13.078125 13.015625 -13.867188 12.296875 -14.453125 C 11.585938 -15.046875 10.660156 -15.34375 9.515625 -15.34375 C 8.460938 -15.34375 7.566406 -15.078125 6.828125 -14.546875 C 6.097656 -14.023438 5.546875 -13.269531 5.171875 -12.28125 C 4.796875 -11.289062 4.609375 -10.101562 4.609375 -8.71875 C 4.609375 -7.5 4.773438 -6.382812 5.109375 -5.375 C 5.453125 -4.375 5.984375 -3.582031 6.703125 -3 C 7.421875 -2.414062 8.359375 -2.125 9.515625 -2.125 Z M 9.515625 -2.125 "/></g></g><g style="fill:#5170ff;fill-opacity:1;"><g transform="translate(259.358214, 40.167972)"><path style="stroke:none" d="M 2.578125 0 L 2.578125 -17.453125 L 5.546875 -17.453125 L 5.546875 -14.09375 C 5.835938 -14.925781 6.25 -15.613281 6.78125 -16.15625 C 7.3125 -16.695312 7.914062 -17.101562 8.59375 -17.375 C 9.28125 -17.644531 9.988281 -17.78125 10.71875 -17.78125 C 10.976562 -17.78125 11.226562 -17.765625 11.46875 -17.734375 C 11.71875 -17.703125 11.910156 -17.644531 12.046875 -17.5625 L 12.046875 -14.546875 C 11.878906 -14.628906 11.660156 -14.679688 11.390625 -14.703125 C 11.128906 -14.734375 10.910156 -14.75 10.734375 -14.75 C 10.035156 -14.789062 9.378906 -14.742188 8.765625 -14.609375 C 8.160156 -14.484375 7.628906 -14.265625 7.171875 -13.953125 C 6.710938 -13.640625 6.347656 -13.226562 6.078125 -12.71875 C 5.816406 -12.207031 5.6875 -11.582031 5.6875 -10.84375 L 5.6875 0 Z M 2.578125 0 "/></g></g><g style="fill:#5170ff;fill-opacity:1;"><g transform="translate(270.744581, 40.167972)"><path style="stroke:none" d="M 9.9375 5.765625 C 7.195312 5.765625 5.0625 5.367188 3.53125 4.578125 C 2.007812 3.785156 1.25 2.65625 1.25 1.1875 C 1.25 0.550781 1.394531 0.015625 1.6875 -0.421875 C 1.976562 -0.867188 2.328125 -1.238281 2.734375 -1.53125 C 3.140625 -1.820312 3.515625 -2.054688 3.859375 -2.234375 C 4.210938 -2.410156 4.441406 -2.535156 4.546875 -2.609375 C 4.347656 -2.722656 4.101562 -2.863281 3.8125 -3.03125 C 3.53125 -3.207031 3.28125 -3.4375 3.0625 -3.71875 C 2.851562 -4 2.75 -4.363281 2.75 -4.8125 C 2.75 -5.363281 3.003906 -5.867188 3.515625 -6.328125 C 4.035156 -6.785156 4.804688 -7.128906 5.828125 -7.359375 C 4.796875 -7.878906 3.992188 -8.566406 3.421875 -9.421875 C 2.847656 -10.273438 2.5625 -11.203125 2.5625 -12.203125 C 2.5625 -13.328125 2.867188 -14.304688 3.484375 -15.140625 C 4.097656 -15.972656 4.972656 -16.609375 6.109375 -17.046875 C 7.242188 -17.492188 8.59375 -17.71875 10.15625 -17.71875 C 11.289062 -17.71875 12.242188 -17.582031 13.015625 -17.3125 C 13.796875 -17.050781 14.519531 -16.679688 15.1875 -16.203125 C 15.363281 -16.273438 15.644531 -16.394531 16.03125 -16.5625 C 16.425781 -16.726562 16.859375 -16.90625 17.328125 -17.09375 C 17.804688 -17.28125 18.25 -17.460938 18.65625 -17.640625 C 19.0625 -17.816406 19.390625 -17.953125 19.640625 -18.046875 L 19.625 -15.15625 L 16.578125 -14.578125 C 16.742188 -14.222656 16.878906 -13.828125 16.984375 -13.390625 C 17.085938 -12.960938 17.140625 -12.566406 17.140625 -12.203125 C 17.140625 -11.179688 16.875 -10.253906 16.34375 -9.421875 C 15.8125 -8.585938 15.003906 -7.921875 13.921875 -7.421875 C 12.835938 -6.929688 11.488281 -6.6875 9.875 -6.6875 C 9.738281 -6.6875 9.566406 -6.6875 9.359375 -6.6875 C 9.148438 -6.695312 8.972656 -6.707031 8.828125 -6.71875 C 7.628906 -6.6875 6.804688 -6.550781 6.359375 -6.3125 C 5.910156 -6.082031 5.6875 -5.828125 5.6875 -5.546875 C 5.6875 -5.222656 5.9375 -5 6.4375 -4.875 C 6.945312 -4.75 7.8125 -4.644531 9.03125 -4.5625 C 9.46875 -4.53125 10.007812 -4.5 10.65625 -4.46875 C 11.300781 -4.4375 12.019531 -4.394531 12.8125 -4.34375 C 14.644531 -4.226562 16.054688 -3.757812 17.046875 -2.9375 C 18.035156 -2.113281 18.53125 -1.003906 18.53125 0.390625 C 18.53125 1.972656 17.820312 3.265625 16.40625 4.265625 C 14.988281 5.265625 12.832031 5.765625 9.9375 5.765625 Z M 10.5 3.765625 C 12.101562 3.765625 13.332031 3.519531 14.1875 3.03125 C 15.039062 2.550781 15.46875 1.820312 15.46875 0.84375 C 15.46875 0.144531 15.207031 -0.421875 14.6875 -0.859375 C 14.164062 -1.304688 13.367188 -1.566406 12.296875 -1.640625 L 7.40625 -1.953125 C 6.96875 -1.972656 6.507812 -1.863281 6.03125 -1.625 C 5.5625 -1.382812 5.160156 -1.050781 4.828125 -0.625 C 4.503906 -0.195312 4.34375 0.285156 4.34375 0.828125 C 4.34375 1.742188 4.84375 2.460938 5.84375 2.984375 C 6.851562 3.503906 8.40625 3.765625 10.5 3.765625 Z M 9.953125 -8.6875 C 11.210938 -8.6875 12.226562 -8.976562 13 -9.5625 C 13.769531 -10.15625 14.15625 -11.023438 14.15625 -12.171875 C 14.15625 -13.347656 13.769531 -14.242188 13 -14.859375 C 12.226562 -15.484375 11.210938 -15.796875 9.953125 -15.796875 C 8.679688 -15.796875 7.65625 -15.484375 6.875 -14.859375 C 6.09375 -14.234375 5.703125 -13.335938 5.703125 -12.171875 C 5.703125 -11.066406 6.070312 -10.207031 6.8125 -9.59375 C 7.5625 -8.988281 8.609375 -8.6875 9.953125 -8.6875 Z M 9.953125 -8.6875 "/></g></g><path style=" stroke:none;fill-rule:nonzero;fill:#ff6d4d;fill-opacity:1;" d="M 231.535156 11.839844 C 232.046875 11.945312 232.519531 12.148438 232.953125 12.441406 C 233.386719 12.738281 233.746094 13.105469 234.03125 13.542969 C 234.320312 13.980469 234.511719 14.457031 234.609375 14.96875 C 234.707031 15.484375 234.703125 15.996094 234.59375 16.511719 C 234.488281 17.023438 234.289062 17.496094 233.992188 17.929688 C 233.699219 18.359375 233.332031 18.722656 232.894531 19.007812 C 232.457031 19.296875 231.980469 19.488281 231.464844 19.585938 C 230.953125 19.683594 230.4375 19.679688 229.925781 19.570312 C 229.414062 19.464844 228.941406 19.265625 228.507812 18.96875 C 228.074219 18.675781 227.714844 18.308594 227.425781 17.871094 C 227.140625 17.433594 226.949219 16.957031 226.851562 16.441406 C 226.753906 15.925781 226.757812 15.414062 226.863281 14.902344 C 226.972656 14.386719 227.171875 13.914062 227.464844 13.484375 C 227.761719 13.050781 228.128906 12.691406 228.566406 12.402344 C 229.003906 12.117188 229.480469 11.925781 229.992188 11.828125 C 230.507812 11.730469 231.023438 11.734375 231.535156 11.839844 Z M 231.535156 11.839844 "/><path style=" stroke:none;fill-rule:nonzero;fill:#ff6d4d;fill-opacity:1;" d="M 228.398438 32.625 L 230.320312 30.644531 C 230.953125 29.992188 231.117188 29.015625 230.738281 28.191406 C 230.355469 27.367188 229.503906 26.867188 228.597656 26.925781 L 222.589844 27.335938 C 222.339844 27.710938 222.105469 28.09375 221.886719 28.484375 Z M 228.398438 32.625 "/><path style=" stroke:none;fill-rule:nonzero;fill:#ff6d4d;fill-opacity:1;" d="M 218.625 36.398438 C 217.78125 37.265625 217.800781 38.65625 218.671875 39.5 C 219.097656 39.914062 219.648438 40.117188 220.199219 40.117188 C 220.769531 40.117188 221.34375 39.894531 221.773438 39.453125 L 224.703125 36.429688 L 220.925781 34.027344 Z M 218.625 36.398438 "/><g clip-rule="nonzero" clip-path="url(#74148f1d10)"><path style=" stroke:none;fill-rule:nonzero;fill:#ff6d4d;fill-opacity:1;" d="M 233.589844 45.578125 L 232.8125 43.59375 L 229.367188 34.25 C 229.199219 33.796875 228.890625 33.414062 228.484375 33.15625 L 221.351562 28.621094 C 221.964844 27.460938 222.746094 26.347656 223.539062 25.320312 C 224.304688 24.324219 225.082031 23.410156 225.722656 22.625 C 226.988281 21.320312 227.390625 19.167969 226.246094 18.132812 C 225.988281 17.898438 225.667969 17.703125 225.308594 17.558594 L 213.109375 9.4375 C 212.464844 9.007812 211.59375 9.183594 211.164062 9.828125 C 210.734375 10.472656 210.90625 11.34375 211.554688 11.773438 L 217.585938 15.789062 L 224.144531 18.636719 C 224.4375 18.765625 224.695312 18.96875 224.882812 19.230469 C 225.261719 19.746094 225.335938 20.429688 225.082031 21.011719 C 224.890625 21.457031 224.535156 21.796875 224.085938 21.976562 C 223.636719 22.152344 223.148438 22.144531 222.703125 21.953125 L 219.097656 20.386719 C 217.957031 21.660156 217.113281 22.914062 216.332031 24.503906 C 216 25.1875 215.675781 25.933594 215.347656 26.769531 C 214.5 29.523438 216.070312 30.6875 217.5 31.429688 C 217.644531 31.503906 217.78125 31.570312 217.910156 31.632812 L 225.507812 36.460938 L 228.519531 44.628906 C 228.816406 45.433594 229.382812 46.105469 230.125 46.535156 L 231.890625 47.5625 L 233.785156 48.660156 C 234.113281 48.851562 234.550781 48.664062 234.601562 48.289062 C 234.609375 48.230469 234.605469 48.171875 234.582031 48.117188 Z M 233.589844 45.578125 "/></g><g clip-rule="nonzero" clip-path="url(#92906040f0)"><path style=" stroke:none;fill-rule:nonzero;fill:#ff6d4d;fill-opacity:1;" d="M 224.710938 20.851562 C 225.019531 20.140625 224.695312 19.316406 223.984375 19.007812 L 209.875 12.882812 C 209.164062 12.574219 208.335938 12.902344 208.027344 13.613281 C 207.820312 14.085938 207.898438 14.609375 208.179688 15 C 208.324219 15.195312 208.519531 15.355469 208.753906 15.457031 L 222.863281 21.582031 C 223.578125 21.890625 224.402344 21.5625 224.710938 20.851562 Z M 224.710938 20.851562 "/></g></g></svg>