<svg xmlns="http://www.w3.org/2000/svg" xmlns:xlink="http://www.w3.org/1999/xlink" width="400" zoomAndPan="magnify" viewBox="0 0 300 60" height="80" preserveAspectRatio="xMidYMid meet" version="1.2"><defs/><g id="a28d417bb7"><g style="fill:#ff5757;fill-opacity:1;"><g transform="translate(6, 44.65014)"><path style="stroke:none" d="M 4.453125 0.40625 C 3.578125 0.40625 2.675781 0.328125 1.75 0.171875 C 0.820312 0.015625 0.140625 -0.117188 -0.296875 -0.234375 L 0.625 -5.578125 C 0.976562 -5.492188 1.390625 -5.382812 1.859375 -5.25 C 2.328125 -5.125 2.847656 -5.0625 3.421875 -5.0625 C 4.734375 -5.0625 5.671875 -5.414062 6.234375 -6.125 C 6.796875 -6.832031 7.191406 -7.988281 7.421875 -9.59375 L 10.265625 -28.890625 L 16.03125 -28.890625 L 12.953125 -8.03125 C 12.671875 -6.195312 12.238281 -4.648438 11.65625 -3.390625 C 11.082031 -2.140625 10.222656 -1.191406 9.078125 -0.546875 C 7.941406 0.0859375 6.398438 0.40625 4.453125 0.40625 Z M 4.453125 0.40625 "/></g></g><g style="fill:#ff5757;fill-opacity:1;"><g transform="translate(21.984397, 44.65014)"><path style="stroke:none" d="M 8.453125 0.40625 C 7.535156 0.40625 6.640625 0.257812 5.765625 -0.03125 C 4.898438 -0.332031 4.132812 -0.769531 3.46875 -1.34375 C 2.8125 -1.914062 2.316406 -2.617188 1.984375 -3.453125 C 1.660156 -4.296875 1.570312 -5.269531 1.71875 -6.375 L 3.71875 -20.65625 L 9.53125 -20.65625 L 7.640625 -7.109375 C 7.503906 -6.148438 7.691406 -5.363281 8.203125 -4.75 C 8.710938 -4.144531 9.550781 -3.84375 10.71875 -3.84375 C 11.820312 -3.84375 12.734375 -4.132812 13.453125 -4.71875 C 14.179688 -5.3125 14.617188 -6.144531 14.765625 -7.21875 L 16.671875 -20.65625 L 22.421875 -20.65625 L 19.53125 0 L 15.140625 0 L 15.0625 -4.09375 C 14.65625 -2.882812 14.078125 -1.957031 13.328125 -1.3125 C 12.578125 -0.664062 11.769531 -0.21875 10.90625 0.03125 C 10.050781 0.28125 9.234375 0.40625 8.453125 0.40625 Z M 8.453125 0.40625 "/></g></g><g style="fill:#ff5757;fill-opacity:1;"><g transform="translate(45.341604, 44.65014)"><path style="stroke:none" d="M 1.078125 0 L 4.140625 -20.65625 L 9.765625 -20.65625 L 9.375 -18 C 10.101562 -18.851562 11.019531 -19.578125 12.125 -20.171875 C 13.238281 -20.765625 14.578125 -21.0625 16.140625 -21.0625 C 17.171875 -21.0625 18.1875 -20.820312 19.1875 -20.34375 C 20.195312 -19.875 20.910156 -19.09375 21.328125 -18 C 22.160156 -18.945312 23.175781 -19.691406 24.375 -20.234375 C 25.570312 -20.785156 26.742188 -21.0625 27.890625 -21.0625 C 28.640625 -21.0625 29.378906 -20.929688 30.109375 -20.671875 C 30.847656 -20.410156 31.5 -20.003906 32.0625 -19.453125 C 32.632812 -18.910156 33.046875 -18.203125 33.296875 -17.328125 C 33.554688 -16.460938 33.59375 -15.414062 33.40625 -14.1875 L 31.3125 0 L 25.546875 0 L 27.578125 -13.546875 C 27.703125 -14.347656 27.640625 -14.984375 27.390625 -15.453125 C 27.148438 -15.929688 26.8125 -16.273438 26.375 -16.484375 C 25.9375 -16.703125 25.453125 -16.8125 24.921875 -16.8125 C 24.191406 -16.8125 23.550781 -16.671875 23 -16.390625 C 22.457031 -16.117188 22.015625 -15.703125 21.671875 -15.140625 C 21.328125 -14.585938 21.09375 -13.878906 20.96875 -13.015625 L 19.046875 0 L 13.296875 0 L 15.375 -14.0625 C 15.476562 -14.65625 15.398438 -15.15625 15.140625 -15.5625 C 14.878906 -15.96875 14.519531 -16.273438 14.0625 -16.484375 C 13.613281 -16.703125 13.144531 -16.8125 12.65625 -16.8125 C 12.144531 -16.8125 11.617188 -16.703125 11.078125 -16.484375 C 10.535156 -16.273438 10.0625 -15.953125 9.65625 -15.515625 C 9.25 -15.085938 9 -14.539062 8.90625 -13.875 L 6.8125 0 Z M 1.078125 0 "/></g></g><g style="fill:#ff5757;fill-opacity:1;"><g transform="translate(80.467308, 44.65014)"><path style="stroke:none" d="M 0.265625 6.4375 L 4 -20.65625 L 9.796875 -20.65625 L 9.40625 -17.6875 C 9.925781 -18.320312 10.53125 -18.894531 11.21875 -19.40625 C 11.914062 -19.925781 12.679688 -20.332031 13.515625 -20.625 C 14.359375 -20.914062 15.226562 -21.0625 16.125 -21.0625 C 17.632812 -21.0625 18.914062 -20.6875 19.96875 -19.9375 C 21.03125 -19.1875 21.789062 -18.023438 22.25 -16.453125 C 22.707031 -14.890625 22.769531 -12.898438 22.4375 -10.484375 C 22.09375 -7.984375 21.441406 -5.929688 20.484375 -4.328125 C 19.535156 -2.722656 18.378906 -1.53125 17.015625 -0.75 C 15.660156 0.0195312 14.191406 0.40625 12.609375 0.40625 C 11.972656 0.40625 11.378906 0.3125 10.828125 0.125 C 10.285156 -0.0507812 9.789062 -0.296875 9.34375 -0.609375 C 8.90625 -0.929688 8.519531 -1.300781 8.1875 -1.71875 C 7.851562 -2.144531 7.582031 -2.601562 7.375 -3.09375 L 6.078125 6.4375 Z M 11.796875 -3.875 C 13.015625 -3.875 14.109375 -4.398438 15.078125 -5.453125 C 16.054688 -6.503906 16.695312 -8.171875 17 -10.453125 C 17.269531 -12.453125 17.082031 -14.015625 16.4375 -15.140625 C 15.800781 -16.265625 14.835938 -16.828125 13.546875 -16.828125 C 12.097656 -16.828125 10.929688 -16.21875 10.046875 -15 C 9.171875 -13.78125 8.613281 -12.265625 8.375 -10.453125 C 8.226562 -9.296875 8.238281 -8.21875 8.40625 -7.21875 C 8.582031 -6.21875 8.945312 -5.410156 9.5 -4.796875 C 10.050781 -4.179688 10.816406 -3.875 11.796875 -3.875 Z M 11.796875 -3.875 "/></g></g><g style="fill:#ffffff;fill-opacity:1;"><g transform="translate(104.285152, 44.65014)"><path style="stroke:none" d="M 14.09375 0.40625 C 12.664062 0.40625 11.265625 0.226562 9.890625 -0.125 C 8.515625 -0.488281 7.257812 -1.03125 6.125 -1.75 C 5 -2.476562 4.066406 -3.378906 3.328125 -4.453125 C 2.585938 -5.535156 2.144531 -6.800781 2 -8.25 L 7.96875 -8.25 C 8.175781 -7.375 8.554688 -6.632812 9.109375 -6.03125 C 9.671875 -5.4375 10.378906 -4.976562 11.234375 -4.65625 C 12.085938 -4.332031 13.03125 -4.171875 14.0625 -4.171875 C 15.132812 -4.171875 16.109375 -4.300781 16.984375 -4.5625 C 17.867188 -4.832031 18.578125 -5.238281 19.109375 -5.78125 C 19.640625 -6.320312 19.90625 -7 19.90625 -7.8125 C 19.90625 -8.539062 19.6875 -9.140625 19.25 -9.609375 C 18.820312 -10.078125 18.238281 -10.457031 17.5 -10.75 C 16.769531 -11.039062 15.941406 -11.28125 15.015625 -11.46875 L 10.015625 -12.484375 C 7.828125 -12.898438 6.09375 -13.769531 4.8125 -15.09375 C 3.53125 -16.425781 2.875 -18.195312 2.84375 -20.40625 C 2.820312 -22.21875 3.300781 -23.785156 4.28125 -25.109375 C 5.257812 -26.429688 6.59375 -27.453125 8.28125 -28.171875 C 9.96875 -28.890625 11.859375 -29.25 13.953125 -29.25 C 16.441406 -29.25 18.535156 -28.859375 20.234375 -28.078125 C 21.929688 -27.304688 23.222656 -26.253906 24.109375 -24.921875 C 24.992188 -23.597656 25.453125 -22.125 25.484375 -20.5 L 19.625 -20.5 C 19.519531 -21.507812 19.210938 -22.316406 18.703125 -22.921875 C 18.203125 -23.523438 17.550781 -23.957031 16.75 -24.21875 C 15.957031 -24.488281 15.054688 -24.625 14.046875 -24.625 C 13.273438 -24.625 12.570312 -24.535156 11.9375 -24.359375 C 11.300781 -24.179688 10.765625 -23.9375 10.328125 -23.625 C 9.890625 -23.3125 9.550781 -22.941406 9.3125 -22.515625 C 9.070312 -22.097656 8.953125 -21.617188 8.953125 -21.078125 C 8.953125 -20.242188 9.226562 -19.566406 9.78125 -19.046875 C 10.34375 -18.523438 11.394531 -18.097656 12.9375 -17.765625 L 17.890625 -16.75 C 19.660156 -16.40625 21.066406 -15.890625 22.109375 -15.203125 C 23.160156 -14.523438 23.945312 -13.757812 24.46875 -12.90625 C 25 -12.050781 25.347656 -11.179688 25.515625 -10.296875 C 25.679688 -9.410156 25.765625 -8.597656 25.765625 -7.859375 C 25.765625 -6.296875 25.273438 -4.890625 24.296875 -3.640625 C 23.316406 -2.398438 21.953125 -1.414062 20.203125 -0.6875 C 18.460938 0.0390625 16.425781 0.40625 14.09375 0.40625 Z M 14.09375 0.40625 "/></g></g><g style="fill:#ffffff;fill-opacity:1;"><g transform="translate(131.418566, 44.65014)"><path style="stroke:none" d="M 15.09375 -16.609375 L 10.484375 -16.609375 L 10.53125 -5.59375 C 10.53125 -5.09375 10.59375 -4.71875 10.71875 -4.46875 C 10.84375 -4.21875 11.039062 -4.054688 11.3125 -3.984375 C 11.59375 -3.910156 11.945312 -3.875 12.375 -3.875 L 15.140625 -3.875 L 15.140625 -0.28125 C 14.878906 -0.15625 14.460938 -0.0390625 13.890625 0.0625 C 13.328125 0.164062 12.539062 0.21875 11.53125 0.21875 C 9.71875 0.21875 8.3125 -0.0078125 7.3125 -0.46875 C 6.320312 -0.9375 5.632812 -1.59375 5.25 -2.4375 C 4.863281 -3.28125 4.671875 -4.253906 4.671875 -5.359375 L 4.671875 -16.609375 L 1.3125 -16.609375 L 1.3125 -20.65625 L 4.875 -20.65625 L 6.328125 -26.90625 L 10.484375 -26.90625 L 10.484375 -20.6875 L 15.09375 -20.6875 Z M 15.09375 -16.609375 "/></g></g><g style="fill:#ffffff;fill-opacity:1;"><g transform="translate(148.102243, 44.65014)"><path style="stroke:none" d="M 10.109375 0.40625 C 9.148438 0.40625 8.207031 0.257812 7.28125 -0.03125 C 6.351562 -0.332031 5.507812 -0.769531 4.75 -1.34375 C 4 -1.914062 3.390625 -2.617188 2.921875 -3.453125 C 2.460938 -4.296875 2.234375 -5.269531 2.234375 -6.375 L 2.234375 -20.65625 L 8.078125 -20.65625 L 8.078125 -7.109375 C 8.078125 -6.148438 8.390625 -5.363281 9.015625 -4.75 C 9.640625 -4.144531 10.554688 -3.84375 11.765625 -3.84375 C 12.910156 -3.84375 13.820312 -4.132812 14.5 -4.71875 C 15.175781 -5.3125 15.515625 -6.144531 15.515625 -7.21875 L 15.515625 -20.65625 L 21.28125 -20.65625 L 21.28125 0 L 16.890625 0 L 16.203125 -4.09375 C 15.960938 -2.882812 15.515625 -1.957031 14.859375 -1.3125 C 14.203125 -0.664062 13.445312 -0.21875 12.59375 0.03125 C 11.75 0.28125 10.921875 0.40625 10.109375 0.40625 Z M 10.109375 0.40625 "/></g></g><g style="fill:#ffffff;fill-opacity:1;"><g transform="translate(171.619279, 44.65014)"><path style="stroke:none" d="M 10.171875 0.40625 C 7.398438 0.40625 5.238281 -0.546875 3.6875 -2.453125 C 2.144531 -4.367188 1.375 -7.035156 1.375 -10.453125 C 1.375 -12.609375 1.6875 -14.476562 2.3125 -16.0625 C 2.9375 -17.65625 3.863281 -18.882812 5.09375 -19.75 C 6.320312 -20.625 7.820312 -21.0625 9.59375 -21.0625 C 10.34375 -21.0625 11.039062 -20.976562 11.6875 -20.8125 C 12.332031 -20.644531 12.921875 -20.414062 13.453125 -20.125 C 13.984375 -19.832031 14.445312 -19.492188 14.84375 -19.109375 C 15.25 -18.722656 15.578125 -18.304688 15.828125 -17.859375 L 15.828125 -29.703125 L 21.6875 -29.703125 L 21.6875 0 L 17.453125 0 L 16.78125 -4.234375 C 16.59375 -3.660156 16.332031 -3.097656 16 -2.546875 C 15.675781 -2.003906 15.253906 -1.507812 14.734375 -1.0625 C 14.210938 -0.625 13.570312 -0.269531 12.8125 0 C 12.0625 0.269531 11.179688 0.40625 10.171875 0.40625 Z M 11.453125 -3.796875 C 12.921875 -3.796875 14.015625 -4.304688 14.734375 -5.328125 C 15.460938 -6.359375 15.828125 -8.09375 15.828125 -10.53125 C 15.816406 -11.945312 15.648438 -13.117188 15.328125 -14.046875 C 15.003906 -14.984375 14.523438 -15.679688 13.890625 -16.140625 C 13.265625 -16.597656 12.460938 -16.828125 11.484375 -16.828125 C 10.222656 -16.828125 9.171875 -16.34375 8.328125 -15.375 C 7.492188 -14.40625 7.078125 -12.789062 7.078125 -10.53125 C 7.078125 -8.226562 7.46875 -6.53125 8.25 -5.4375 C 9.039062 -4.34375 10.109375 -3.796875 11.453125 -3.796875 Z M 11.453125 -3.796875 "/></g></g><g style="fill:#ffffff;fill-opacity:1;"><g transform="translate(195.795666, 44.65014)"><path style="stroke:none" d="M 5.71875 6.59375 C 4.300781 6.59375 3.300781 6.472656 2.71875 6.234375 C 2.144531 6.003906 1.859375 5.890625 1.859375 5.890625 L 1.859375 2.171875 L 3.890625 2.265625 C 4.785156 2.316406 5.503906 2.269531 6.046875 2.125 C 6.597656 1.988281 7.015625 1.804688 7.296875 1.578125 C 7.585938 1.347656 7.789062 1.109375 7.90625 0.859375 C 8.03125 0.617188 8.117188 0.425781 8.171875 0.28125 L 8.546875 -0.859375 L 0.515625 -20.65625 L 6.296875 -20.65625 L 11.25 -7.1875 L 16.265625 -20.65625 L 21.96875 -20.65625 L 13.59375 0.125 C 12.875 1.882812 12.113281 3.226562 11.3125 4.15625 C 10.507812 5.09375 9.644531 5.734375 8.71875 6.078125 C 7.789062 6.421875 6.789062 6.59375 5.71875 6.59375 Z M 5.71875 6.59375 "/></g></g><g style="fill:#e4e2dd;fill-opacity:1;"><g transform="translate(218.285151, 44.65014)"><path style="stroke:none" d="M 2.203125 0 L 2.203125 -4.71875 L 6.59375 -4.71875 L 6.59375 0 Z M 2.203125 0 "/></g></g><g style="fill:#e4e2dd;fill-opacity:1;"><g transform="translate(227.296354, 44.65014)"><path style="stroke:none" d="M 11.265625 0.40625 C 9.359375 0.40625 7.691406 -0.00390625 6.265625 -0.828125 C 4.847656 -1.648438 3.742188 -2.851562 2.953125 -4.4375 C 2.171875 -6.019531 1.78125 -7.957031 1.78125 -10.25 C 1.78125 -12.40625 2.144531 -14.296875 2.875 -15.921875 C 3.613281 -17.546875 4.691406 -18.804688 6.109375 -19.703125 C 7.523438 -20.609375 9.242188 -21.0625 11.265625 -21.0625 C 13.171875 -21.0625 14.828125 -20.644531 16.234375 -19.8125 C 17.640625 -18.976562 18.726562 -17.753906 19.5 -16.140625 C 20.269531 -14.535156 20.65625 -12.570312 20.65625 -10.25 C 20.65625 -8.144531 20.300781 -6.289062 19.59375 -4.6875 C 18.882812 -3.09375 17.832031 -1.84375 16.4375 -0.9375 C 15.039062 -0.0390625 13.316406 0.40625 11.265625 0.40625 Z M 11.265625 -2.515625 C 12.503906 -2.515625 13.550781 -2.828125 14.40625 -3.453125 C 15.257812 -4.078125 15.90625 -4.972656 16.34375 -6.140625 C 16.78125 -7.316406 17 -8.710938 17 -10.328125 C 17 -11.804688 16.804688 -13.132812 16.421875 -14.3125 C 16.035156 -15.5 15.421875 -16.4375 14.578125 -17.125 C 13.734375 -17.820312 12.628906 -18.171875 11.265625 -18.171875 C 10.015625 -18.171875 8.957031 -17.859375 8.09375 -17.234375 C 7.226562 -16.617188 6.570312 -15.722656 6.125 -14.546875 C 5.675781 -13.378906 5.453125 -11.972656 5.453125 -10.328125 C 5.453125 -8.878906 5.648438 -7.5625 6.046875 -6.375 C 6.453125 -5.1875 7.082031 -4.242188 7.9375 -3.546875 C 8.789062 -2.859375 9.898438 -2.515625 11.265625 -2.515625 Z M 11.265625 -2.515625 "/></g></g><g style="fill:#e4e2dd;fill-opacity:1;"><g transform="translate(249.754422, 44.65014)"><path style="stroke:none" d="M 3.0625 0 L 3.0625 -20.65625 L 6.578125 -20.65625 L 6.578125 -16.6875 C 6.921875 -17.675781 7.40625 -18.492188 8.03125 -19.140625 C 8.65625 -19.785156 9.367188 -20.265625 10.171875 -20.578125 C 10.984375 -20.898438 11.820312 -21.0625 12.6875 -21.0625 C 13 -21.0625 13.300781 -21.039062 13.59375 -21 C 13.882812 -20.957031 14.109375 -20.890625 14.265625 -20.796875 L 14.265625 -17.234375 C 14.066406 -17.316406 13.8125 -17.375 13.5 -17.40625 C 13.1875 -17.445312 12.921875 -17.46875 12.703125 -17.46875 C 11.878906 -17.519531 11.109375 -17.46875 10.390625 -17.3125 C 9.671875 -17.164062 9.035156 -16.90625 8.484375 -16.53125 C 7.941406 -16.15625 7.515625 -15.664062 7.203125 -15.0625 C 6.890625 -14.457031 6.734375 -13.71875 6.734375 -12.84375 L 6.734375 0 Z M 3.0625 0 "/></g></g><g style="fill:#e4e2dd;fill-opacity:1;"><g transform="translate(265.239297, 44.65014)"><path style="stroke:none" d="M 11.765625 6.828125 C 8.515625 6.828125 5.988281 6.359375 4.1875 5.421875 C 2.382812 4.484375 1.484375 3.144531 1.484375 1.40625 C 1.484375 0.65625 1.65625 0.0195312 2 -0.5 C 2.34375 -1.03125 2.753906 -1.46875 3.234375 -1.8125 C 3.710938 -2.164062 4.160156 -2.441406 4.578125 -2.640625 C 4.992188 -2.847656 5.257812 -3 5.375 -3.09375 C 5.144531 -3.226562 4.859375 -3.394531 4.515625 -3.59375 C 4.179688 -3.789062 3.882812 -4.054688 3.625 -4.390625 C 3.375 -4.722656 3.25 -5.160156 3.25 -5.703125 C 3.25 -6.347656 3.554688 -6.941406 4.171875 -7.484375 C 4.785156 -8.035156 5.691406 -8.445312 6.890625 -8.71875 C 5.679688 -9.320312 4.734375 -10.128906 4.046875 -11.140625 C 3.367188 -12.160156 3.03125 -13.265625 3.03125 -14.453125 C 3.03125 -15.785156 3.394531 -16.941406 4.125 -17.921875 C 4.851562 -18.910156 5.890625 -19.664062 7.234375 -20.1875 C 8.578125 -20.71875 10.175781 -20.984375 12.03125 -20.984375 C 13.375 -20.984375 14.503906 -20.828125 15.421875 -20.515625 C 16.347656 -20.203125 17.203125 -19.757812 17.984375 -19.1875 C 18.203125 -19.28125 18.539062 -19.421875 19 -19.609375 C 19.457031 -19.804688 19.960938 -20.015625 20.515625 -20.234375 C 21.078125 -20.460938 21.601562 -20.679688 22.09375 -20.890625 C 22.582031 -21.097656 22.972656 -21.253906 23.265625 -21.359375 L 23.234375 -17.953125 L 19.625 -17.265625 C 19.820312 -16.835938 19.984375 -16.367188 20.109375 -15.859375 C 20.234375 -15.359375 20.296875 -14.890625 20.296875 -14.453125 C 20.296875 -13.234375 19.976562 -12.128906 19.34375 -11.140625 C 18.71875 -10.160156 17.765625 -9.375 16.484375 -8.78125 C 15.203125 -8.195312 13.601562 -7.90625 11.6875 -7.90625 C 11.53125 -7.90625 11.328125 -7.910156 11.078125 -7.921875 C 10.835938 -7.929688 10.628906 -7.941406 10.453125 -7.953125 C 9.035156 -7.910156 8.0625 -7.753906 7.53125 -7.484375 C 7 -7.210938 6.734375 -6.910156 6.734375 -6.578125 C 6.734375 -6.191406 7.03125 -5.925781 7.625 -5.78125 C 8.226562 -5.632812 9.25 -5.503906 10.6875 -5.390625 C 11.207031 -5.367188 11.847656 -5.335938 12.609375 -5.296875 C 13.378906 -5.253906 14.234375 -5.203125 15.171875 -5.140625 C 17.335938 -5.003906 19.003906 -4.445312 20.171875 -3.46875 C 21.347656 -2.5 21.9375 -1.191406 21.9375 0.453125 C 21.9375 2.335938 21.097656 3.867188 19.421875 5.046875 C 17.742188 6.234375 15.191406 6.828125 11.765625 6.828125 Z M 12.4375 4.453125 C 14.332031 4.453125 15.785156 4.164062 16.796875 3.59375 C 17.816406 3.019531 18.328125 2.15625 18.328125 1 C 18.328125 0.175781 18.015625 -0.492188 17.390625 -1.015625 C 16.773438 -1.546875 15.832031 -1.851562 14.5625 -1.9375 L 8.765625 -2.3125 C 8.253906 -2.34375 7.71875 -2.210938 7.15625 -1.921875 C 6.59375 -1.640625 6.113281 -1.242188 5.71875 -0.734375 C 5.332031 -0.234375 5.140625 0.335938 5.140625 0.984375 C 5.140625 2.078125 5.734375 2.925781 6.921875 3.53125 C 8.117188 4.144531 9.957031 4.453125 12.4375 4.453125 Z M 11.796875 -10.296875 C 13.285156 -10.296875 14.484375 -10.640625 15.390625 -11.328125 C 16.304688 -12.023438 16.765625 -13.050781 16.765625 -14.40625 C 16.765625 -15.800781 16.304688 -16.863281 15.390625 -17.59375 C 14.484375 -18.332031 13.285156 -18.703125 11.796875 -18.703125 C 10.285156 -18.703125 9.066406 -18.332031 8.140625 -17.59375 C 7.210938 -16.851562 6.75 -15.789062 6.75 -14.40625 C 6.75 -13.101562 7.1875 -12.09375 8.0625 -11.375 C 8.945312 -10.65625 10.191406 -10.296875 11.796875 -10.296875 Z M 11.796875 -10.296875 "/></g></g></g></svg>