<svg xmlns="http://www.w3.org/2000/svg" xmlns:xlink="http://www.w3.org/1999/xlink" width="400" zoomAndPan="magnify" viewBox="0 0 300 60" height="80" preserveAspectRatio="xMidYMid meet" version="1.2"><defs><clipPath id="96b57ca934"><path d="M 211 9 L 236 9 L 236 48.71875 L 211 48.71875 Z M 211 9 "/></clipPath><clipPath id="ea267281bb"><path d="M 208.574219 12 L 226 12 L 226 22 L 208.574219 22 Z M 208.574219 12 "/></clipPath></defs><g id="05f24be135"><g style="fill:#ff6d4d;fill-opacity:1;"><g transform="translate(6, 43.000381)"><path style="stroke:none" d="M 4.296875 0.390625 C 3.441406 0.390625 2.566406 0.3125 1.671875 0.15625 C 0.785156 0.0078125 0.132812 -0.117188 -0.28125 -0.234375 L 0.59375 -5.359375 C 0.9375 -5.285156 1.332031 -5.179688 1.78125 -5.046875 C 2.238281 -4.921875 2.742188 -4.859375 3.296875 -4.859375 C 4.554688 -4.859375 5.457031 -5.203125 6 -5.890625 C 6.539062 -6.578125 6.921875 -7.691406 7.140625 -9.234375 L 9.890625 -27.8125 L 15.421875 -27.8125 L 12.46875 -7.734375 C 12.195312 -5.960938 11.78125 -4.472656 11.21875 -3.265625 C 10.664062 -2.066406 9.835938 -1.15625 8.734375 -0.53125 C 7.640625 0.0820312 6.160156 0.390625 4.296875 0.390625 Z M 4.296875 0.390625 "/></g></g><g style="fill:#ff6d4d;fill-opacity:1;"><g transform="translate(21.382779, 43.000381)"><path style="stroke:none" d="M 8.140625 0.390625 C 7.253906 0.390625 6.394531 0.25 5.5625 -0.03125 C 4.726562 -0.320312 3.988281 -0.738281 3.34375 -1.28125 C 2.707031 -1.832031 2.226562 -2.515625 1.90625 -3.328125 C 1.59375 -4.140625 1.507812 -5.078125 1.65625 -6.140625 L 3.578125 -19.890625 L 9.171875 -19.890625 L 7.34375 -6.84375 C 7.21875 -5.925781 7.398438 -5.171875 7.890625 -4.578125 C 8.390625 -3.984375 9.195312 -3.6875 10.3125 -3.6875 C 11.375 -3.6875 12.253906 -3.972656 12.953125 -4.546875 C 13.648438 -5.117188 14.070312 -5.914062 14.21875 -6.9375 L 16.046875 -19.890625 L 21.578125 -19.890625 L 18.796875 0 L 14.578125 0 L 14.5 -3.9375 C 14.101562 -2.769531 13.546875 -1.875 12.828125 -1.25 C 12.109375 -0.632812 11.332031 -0.207031 10.5 0.03125 C 9.675781 0.269531 8.890625 0.390625 8.140625 0.390625 Z M 8.140625 0.390625 "/></g></g><g style="fill:#ff6d4d;fill-opacity:1;"><g transform="translate(43.860871, 43.000381)"><path style="stroke:none" d="M 1.03125 0 L 3.984375 -19.890625 L 9.40625 -19.890625 L 9.015625 -17.328125 C 9.722656 -18.148438 10.609375 -18.84375 11.671875 -19.40625 C 12.734375 -19.976562 14.023438 -20.265625 15.546875 -20.265625 C 16.523438 -20.265625 17.5 -20.035156 18.46875 -19.578125 C 19.4375 -19.128906 20.117188 -18.378906 20.515625 -17.328125 C 21.328125 -18.242188 22.3125 -18.960938 23.46875 -19.484375 C 24.625 -20.003906 25.75 -20.265625 26.84375 -20.265625 C 27.5625 -20.265625 28.273438 -20.140625 28.984375 -19.890625 C 29.691406 -19.640625 30.316406 -19.253906 30.859375 -18.734375 C 31.398438 -18.210938 31.796875 -17.53125 32.046875 -16.6875 C 32.296875 -15.84375 32.332031 -14.832031 32.15625 -13.65625 L 30.140625 0 L 24.578125 0 L 26.546875 -13.046875 C 26.660156 -13.804688 26.601562 -14.414062 26.375 -14.875 C 26.144531 -15.332031 25.816406 -15.660156 25.390625 -15.859375 C 24.960938 -16.066406 24.492188 -16.171875 23.984375 -16.171875 C 23.273438 -16.171875 22.65625 -16.039062 22.125 -15.78125 C 21.601562 -15.519531 21.179688 -15.117188 20.859375 -14.578125 C 20.535156 -14.035156 20.304688 -13.347656 20.171875 -12.515625 L 18.328125 0 L 12.796875 0 L 14.796875 -13.546875 C 14.890625 -14.109375 14.8125 -14.582031 14.5625 -14.96875 C 14.3125 -15.363281 13.96875 -15.660156 13.53125 -15.859375 C 13.101562 -16.066406 12.648438 -16.171875 12.171875 -16.171875 C 11.679688 -16.171875 11.175781 -16.066406 10.65625 -15.859375 C 10.144531 -15.660156 9.691406 -15.351562 9.296875 -14.9375 C 8.910156 -14.519531 8.671875 -13.988281 8.578125 -13.34375 L 6.5625 0 Z M 1.03125 0 "/></g></g><g style="fill:#ff6d4d;fill-opacity:1;"><g transform="translate(77.664519, 43.000381)"><path style="stroke:none" d="M 0.25 6.1875 L 3.84375 -19.890625 L 9.421875 -19.890625 L 9.0625 -17.015625 C 9.5625 -17.640625 10.144531 -18.195312 10.8125 -18.6875 C 11.476562 -19.175781 12.210938 -19.5625 13.015625 -19.84375 C 13.828125 -20.125 14.660156 -20.265625 15.515625 -20.265625 C 16.972656 -20.265625 18.207031 -19.898438 19.21875 -19.171875 C 20.238281 -18.453125 20.96875 -17.335938 21.40625 -15.828125 C 21.851562 -14.328125 21.914062 -12.414062 21.59375 -10.09375 C 21.257812 -7.6875 20.632812 -5.707031 19.71875 -4.15625 C 18.800781 -2.613281 17.6875 -1.46875 16.375 -0.71875 C 15.070312 0.0195312 13.660156 0.390625 12.140625 0.390625 C 11.523438 0.390625 10.953125 0.300781 10.421875 0.125 C 9.898438 -0.0507812 9.425781 -0.289062 9 -0.59375 C 8.570312 -0.90625 8.195312 -1.257812 7.875 -1.65625 C 7.5625 -2.0625 7.300781 -2.503906 7.09375 -2.984375 L 5.84375 6.1875 Z M 11.34375 -3.734375 C 12.53125 -3.734375 13.585938 -4.238281 14.515625 -5.25 C 15.453125 -6.257812 16.070312 -7.863281 16.375 -10.0625 C 16.625 -11.976562 16.441406 -13.476562 15.828125 -14.5625 C 15.210938 -15.65625 14.285156 -16.203125 13.046875 -16.203125 C 11.640625 -16.203125 10.515625 -15.613281 9.671875 -14.4375 C 8.828125 -13.257812 8.289062 -11.800781 8.0625 -10.0625 C 7.914062 -8.945312 7.925781 -7.90625 8.09375 -6.9375 C 8.257812 -5.976562 8.609375 -5.203125 9.140625 -4.609375 C 9.671875 -4.023438 10.40625 -3.734375 11.34375 -3.734375 Z M 11.34375 -3.734375 "/></g></g><g style="fill:#ffffff;fill-opacity:1;"><g transform="translate(100.58591, 43.000381)"><path style="stroke:none" d="M 13.5625 0.390625 C 12.1875 0.390625 10.835938 0.21875 9.515625 -0.125 C 8.203125 -0.476562 7 -1 5.90625 -1.6875 C 4.8125 -2.382812 3.910156 -3.25 3.203125 -4.28125 C 2.492188 -5.320312 2.066406 -6.539062 1.921875 -7.9375 L 7.671875 -7.9375 C 7.867188 -7.09375 8.234375 -6.378906 8.765625 -5.796875 C 9.304688 -5.222656 9.988281 -4.78125 10.8125 -4.46875 C 11.632812 -4.164062 12.546875 -4.015625 13.546875 -4.015625 C 14.566406 -4.015625 15.5 -4.144531 16.34375 -4.40625 C 17.195312 -4.664062 17.878906 -5.050781 18.390625 -5.5625 C 18.898438 -6.082031 19.15625 -6.734375 19.15625 -7.515625 C 19.15625 -8.222656 18.945312 -8.800781 18.53125 -9.25 C 18.113281 -9.695312 17.550781 -10.0625 16.84375 -10.34375 C 16.144531 -10.625 15.34375 -10.859375 14.4375 -11.046875 L 9.640625 -12.015625 C 7.535156 -12.421875 5.863281 -13.257812 4.625 -14.53125 C 3.394531 -15.8125 2.765625 -17.515625 2.734375 -19.640625 C 2.722656 -21.378906 3.1875 -22.882812 4.125 -24.15625 C 5.070312 -25.4375 6.351562 -26.421875 7.96875 -27.109375 C 9.59375 -27.804688 11.410156 -28.15625 13.421875 -28.15625 C 15.816406 -28.15625 17.832031 -27.78125 19.46875 -27.03125 C 21.101562 -26.28125 22.347656 -25.265625 23.203125 -23.984375 C 24.054688 -22.710938 24.5 -21.296875 24.53125 -19.734375 L 18.890625 -19.734375 C 18.785156 -20.710938 18.488281 -21.488281 18 -22.0625 C 17.507812 -22.632812 16.882812 -23.050781 16.125 -23.3125 C 15.363281 -23.570312 14.492188 -23.703125 13.515625 -23.703125 C 12.773438 -23.703125 12.097656 -23.617188 11.484375 -23.453125 C 10.878906 -23.285156 10.363281 -23.050781 9.9375 -22.75 C 9.519531 -22.445312 9.191406 -22.085938 8.953125 -21.671875 C 8.722656 -21.265625 8.609375 -20.804688 8.609375 -20.296875 C 8.609375 -19.484375 8.878906 -18.828125 9.421875 -18.328125 C 9.960938 -17.828125 10.96875 -17.414062 12.4375 -17.09375 L 17.21875 -16.125 C 18.914062 -15.789062 20.269531 -15.296875 21.28125 -14.640625 C 22.289062 -13.984375 23.046875 -13.242188 23.546875 -12.421875 C 24.054688 -11.597656 24.390625 -10.757812 24.546875 -9.90625 C 24.710938 -9.0625 24.796875 -8.28125 24.796875 -7.5625 C 24.796875 -6.0625 24.320312 -4.710938 23.375 -3.515625 C 22.4375 -2.316406 21.125 -1.363281 19.4375 -0.65625 C 17.757812 0.0390625 15.800781 0.390625 13.5625 0.390625 Z M 13.5625 0.390625 "/></g></g><g style="fill:#ffffff;fill-opacity:1;"><g transform="translate(126.69808, 43.000381)"><path style="stroke:none" d="M 14.515625 -15.984375 L 10.09375 -15.984375 L 10.140625 -5.390625 C 10.140625 -4.898438 10.195312 -4.535156 10.3125 -4.296875 C 10.4375 -4.054688 10.628906 -3.898438 10.890625 -3.828125 C 11.160156 -3.765625 11.5 -3.734375 11.90625 -3.734375 L 14.578125 -3.734375 L 14.578125 -0.265625 C 14.316406 -0.148438 13.914062 -0.0390625 13.375 0.0625 C 12.832031 0.164062 12.070312 0.21875 11.09375 0.21875 C 9.351562 0.21875 8.003906 -0.00390625 7.046875 -0.453125 C 6.085938 -0.910156 5.421875 -1.539062 5.046875 -2.34375 C 4.679688 -3.15625 4.5 -4.09375 4.5 -5.15625 L 4.5 -15.984375 L 1.265625 -15.984375 L 1.265625 -19.890625 L 4.6875 -19.890625 L 6.09375 -25.890625 L 10.09375 -25.890625 L 10.09375 -19.90625 L 14.515625 -19.90625 Z M 14.515625 -15.984375 "/></g></g><g style="fill:#ffffff;fill-opacity:1;"><g transform="translate(142.75382, 43.000381)"><path style="stroke:none" d="M 9.734375 0.390625 C 8.804688 0.390625 7.894531 0.25 7 -0.03125 C 6.113281 -0.320312 5.304688 -0.738281 4.578125 -1.28125 C 3.847656 -1.832031 3.257812 -2.515625 2.8125 -3.328125 C 2.375 -4.140625 2.15625 -5.078125 2.15625 -6.140625 L 2.15625 -19.890625 L 7.765625 -19.890625 L 7.765625 -6.84375 C 7.765625 -5.925781 8.066406 -5.171875 8.671875 -4.578125 C 9.273438 -3.984375 10.160156 -3.6875 11.328125 -3.6875 C 12.429688 -3.6875 13.304688 -3.972656 13.953125 -4.546875 C 14.597656 -5.117188 14.921875 -5.914062 14.921875 -6.9375 L 14.921875 -19.890625 L 20.484375 -19.890625 L 20.484375 0 L 16.25 0 L 15.59375 -3.9375 C 15.363281 -2.769531 14.929688 -1.875 14.296875 -1.25 C 13.660156 -0.632812 12.9375 -0.207031 12.125 0.03125 C 11.3125 0.269531 10.515625 0.390625 9.734375 0.390625 Z M 9.734375 0.390625 "/></g></g><g style="fill:#ffffff;fill-opacity:1;"><g transform="translate(165.385725, 43.000381)"><path style="stroke:none" d="M 9.796875 0.390625 C 7.128906 0.390625 5.050781 -0.53125 3.5625 -2.375 C 2.070312 -4.21875 1.328125 -6.78125 1.328125 -10.0625 C 1.328125 -12.132812 1.628906 -13.929688 2.234375 -15.453125 C 2.835938 -16.984375 3.726562 -18.164062 4.90625 -19 C 6.082031 -19.84375 7.523438 -20.265625 9.234375 -20.265625 C 9.953125 -20.265625 10.617188 -20.1875 11.234375 -20.03125 C 11.859375 -19.875 12.425781 -19.65625 12.9375 -19.375 C 13.457031 -19.09375 13.910156 -18.765625 14.296875 -18.390625 C 14.679688 -18.015625 14.992188 -17.617188 15.234375 -17.203125 L 15.234375 -28.578125 L 20.875 -28.578125 L 20.875 0 L 16.796875 0 L 16.15625 -4.078125 C 15.976562 -3.523438 15.726562 -2.984375 15.40625 -2.453125 C 15.082031 -1.929688 14.671875 -1.457031 14.171875 -1.03125 C 13.671875 -0.601562 13.054688 -0.257812 12.328125 0 C 11.609375 0.257812 10.765625 0.390625 9.796875 0.390625 Z M 11.015625 -3.65625 C 12.429688 -3.65625 13.488281 -4.144531 14.1875 -5.125 C 14.882812 -6.113281 15.234375 -7.785156 15.234375 -10.140625 C 15.222656 -11.492188 15.0625 -12.617188 14.75 -13.515625 C 14.445312 -14.421875 13.988281 -15.09375 13.375 -15.53125 C 12.769531 -15.976562 12 -16.203125 11.0625 -16.203125 C 9.84375 -16.203125 8.828125 -15.734375 8.015625 -14.796875 C 7.210938 -13.867188 6.8125 -12.316406 6.8125 -10.140625 C 6.8125 -7.921875 7.1875 -6.285156 7.9375 -5.234375 C 8.695312 -4.179688 9.722656 -3.65625 11.015625 -3.65625 Z M 11.015625 -3.65625 "/></g></g><g style="fill:#ffffff;fill-opacity:1;"><g transform="translate(188.652164, 43.000381)"><path style="stroke:none" d="M 5.5 6.34375 C 4.144531 6.34375 3.1875 6.226562 2.625 6 C 2.0625 5.78125 1.78125 5.671875 1.78125 5.671875 L 1.78125 2.09375 L 3.75 2.171875 C 4.613281 2.222656 5.304688 2.179688 5.828125 2.046875 C 6.347656 1.910156 6.742188 1.734375 7.015625 1.515625 C 7.296875 1.296875 7.492188 1.066406 7.609375 0.828125 C 7.734375 0.597656 7.816406 0.410156 7.859375 0.265625 L 8.234375 -0.828125 L 0.5 -19.890625 L 6.0625 -19.890625 L 10.828125 -6.921875 L 15.65625 -19.890625 L 21.140625 -19.890625 L 13.078125 0.109375 C 12.390625 1.804688 11.660156 3.101562 10.890625 4 C 10.117188 4.894531 9.285156 5.507812 8.390625 5.84375 C 7.503906 6.175781 6.539062 6.34375 5.5 6.34375 Z M 5.5 6.34375 "/></g></g><g style="fill:#ffffff;fill-opacity:1;"><g transform="translate(236.163741, 40.661179)"><path style="stroke:none" d="M 1.859375 0 L 1.859375 -3.984375 L 5.5625 -3.984375 L 5.5625 0 Z M 1.859375 0 "/></g></g><g style="fill:#ffffff;fill-opacity:1;"><g transform="translate(242.084691, 40.661179)"><path style="stroke:none" d="M 9.515625 0.34375 C 7.910156 0.34375 6.503906 0 5.296875 -0.6875 C 4.097656 -1.382812 3.164062 -2.398438 2.5 -3.734375 C 1.832031 -5.078125 1.5 -6.71875 1.5 -8.65625 C 1.5 -10.476562 1.804688 -12.078125 2.421875 -13.453125 C 3.046875 -14.828125 3.957031 -15.890625 5.15625 -16.640625 C 6.351562 -17.398438 7.804688 -17.78125 9.515625 -17.78125 C 11.128906 -17.78125 12.523438 -17.425781 13.703125 -16.71875 C 14.890625 -16.019531 15.8125 -14.988281 16.46875 -13.625 C 17.125 -12.269531 17.453125 -10.613281 17.453125 -8.65625 C 17.453125 -6.875 17.148438 -5.304688 16.546875 -3.953125 C 15.941406 -2.609375 15.050781 -1.554688 13.875 -0.796875 C 12.695312 -0.0351562 11.242188 0.34375 9.515625 0.34375 Z M 9.515625 -2.125 C 10.566406 -2.125 11.453125 -2.390625 12.171875 -2.921875 C 12.890625 -3.453125 13.429688 -4.210938 13.796875 -5.203125 C 14.171875 -6.191406 14.359375 -7.363281 14.359375 -8.71875 C 14.359375 -9.96875 14.191406 -11.085938 13.859375 -12.078125 C 13.535156 -13.078125 13.015625 -13.867188 12.296875 -14.453125 C 11.585938 -15.046875 10.660156 -15.34375 9.515625 -15.34375 C 8.460938 -15.34375 7.566406 -15.078125 6.828125 -14.546875 C 6.097656 -14.023438 5.546875 -13.269531 5.171875 -12.28125 C 4.796875 -11.289062 4.609375 -10.101562 4.609375 -8.71875 C 4.609375 -7.5 4.773438 -6.382812 5.109375 -5.375 C 5.453125 -4.375 5.984375 -3.582031 6.703125 -3 C 7.421875 -2.414062 8.359375 -2.125 9.515625 -2.125 Z M 9.515625 -2.125 "/></g></g><g style="fill:#ffffff;fill-opacity:1;"><g transform="translate(259.358815, 40.661179)"><path style="stroke:none" d="M 2.578125 0 L 2.578125 -17.453125 L 5.546875 -17.453125 L 5.546875 -14.09375 C 5.835938 -14.925781 6.25 -15.613281 6.78125 -16.15625 C 7.3125 -16.695312 7.914062 -17.101562 8.59375 -17.375 C 9.28125 -17.644531 9.988281 -17.78125 10.71875 -17.78125 C 10.976562 -17.78125 11.226562 -17.765625 11.46875 -17.734375 C 11.71875 -17.703125 11.910156 -17.644531 12.046875 -17.5625 L 12.046875 -14.546875 C 11.878906 -14.628906 11.660156 -14.679688 11.390625 -14.703125 C 11.128906 -14.734375 10.910156 -14.75 10.734375 -14.75 C 10.035156 -14.789062 9.378906 -14.742188 8.765625 -14.609375 C 8.160156 -14.484375 7.628906 -14.265625 7.171875 -13.953125 C 6.710938 -13.640625 6.347656 -13.226562 6.078125 -12.71875 C 5.816406 -12.207031 5.6875 -11.582031 5.6875 -10.84375 L 5.6875 0 Z M 2.578125 0 "/></g></g><g style="fill:#ffffff;fill-opacity:1;"><g transform="translate(270.745485, 40.661179)"><path style="stroke:none" d="M 9.9375 5.765625 C 7.195312 5.765625 5.0625 5.367188 3.53125 4.578125 C 2.007812 3.785156 1.25 2.65625 1.25 1.1875 C 1.25 0.550781 1.394531 0.015625 1.6875 -0.421875 C 1.976562 -0.867188 2.328125 -1.238281 2.734375 -1.53125 C 3.140625 -1.820312 3.515625 -2.054688 3.859375 -2.234375 C 4.210938 -2.410156 4.441406 -2.535156 4.546875 -2.609375 C 4.347656 -2.722656 4.101562 -2.863281 3.8125 -3.03125 C 3.53125 -3.207031 3.28125 -3.4375 3.0625 -3.71875 C 2.851562 -4 2.75 -4.363281 2.75 -4.8125 C 2.75 -5.363281 3.003906 -5.867188 3.515625 -6.328125 C 4.035156 -6.785156 4.804688 -7.128906 5.828125 -7.359375 C 4.796875 -7.878906 3.992188 -8.566406 3.421875 -9.421875 C 2.847656 -10.273438 2.5625 -11.203125 2.5625 -12.203125 C 2.5625 -13.328125 2.867188 -14.304688 3.484375 -15.140625 C 4.097656 -15.972656 4.972656 -16.609375 6.109375 -17.046875 C 7.242188 -17.492188 8.59375 -17.71875 10.15625 -17.71875 C 11.289062 -17.71875 12.242188 -17.582031 13.015625 -17.3125 C 13.796875 -17.050781 14.519531 -16.679688 15.1875 -16.203125 C 15.363281 -16.273438 15.644531 -16.394531 16.03125 -16.5625 C 16.425781 -16.726562 16.859375 -16.90625 17.328125 -17.09375 C 17.804688 -17.28125 18.25 -17.460938 18.65625 -17.640625 C 19.0625 -17.816406 19.390625 -17.953125 19.640625 -18.046875 L 19.625 -15.15625 L 16.578125 -14.578125 C 16.742188 -14.222656 16.878906 -13.828125 16.984375 -13.390625 C 17.085938 -12.960938 17.140625 -12.566406 17.140625 -12.203125 C 17.140625 -11.179688 16.875 -10.253906 16.34375 -9.421875 C 15.8125 -8.585938 15.003906 -7.921875 13.921875 -7.421875 C 12.835938 -6.929688 11.488281 -6.6875 9.875 -6.6875 C 9.738281 -6.6875 9.566406 -6.6875 9.359375 -6.6875 C 9.148438 -6.695312 8.972656 -6.707031 8.828125 -6.71875 C 7.628906 -6.6875 6.804688 -6.550781 6.359375 -6.3125 C 5.910156 -6.082031 5.6875 -5.828125 5.6875 -5.546875 C 5.6875 -5.222656 5.9375 -5 6.4375 -4.875 C 6.945312 -4.75 7.8125 -4.644531 9.03125 -4.5625 C 9.46875 -4.53125 10.007812 -4.5 10.65625 -4.46875 C 11.300781 -4.4375 12.019531 -4.394531 12.8125 -4.34375 C 14.644531 -4.226562 16.054688 -3.757812 17.046875 -2.9375 C 18.035156 -2.113281 18.53125 -1.003906 18.53125 0.390625 C 18.53125 1.972656 17.820312 3.265625 16.40625 4.265625 C 14.988281 5.265625 12.832031 5.765625 9.9375 5.765625 Z M 10.5 3.765625 C 12.101562 3.765625 13.332031 3.519531 14.1875 3.03125 C 15.039062 2.550781 15.46875 1.820312 15.46875 0.84375 C 15.46875 0.144531 15.207031 -0.421875 14.6875 -0.859375 C 14.164062 -1.304688 13.367188 -1.566406 12.296875 -1.640625 L 7.40625 -1.953125 C 6.96875 -1.972656 6.507812 -1.863281 6.03125 -1.625 C 5.5625 -1.382812 5.160156 -1.050781 4.828125 -0.625 C 4.503906 -0.195312 4.34375 0.285156 4.34375 0.828125 C 4.34375 1.742188 4.84375 2.460938 5.84375 2.984375 C 6.851562 3.503906 8.40625 3.765625 10.5 3.765625 Z M 9.953125 -8.6875 C 11.210938 -8.6875 12.226562 -8.976562 13 -9.5625 C 13.769531 -10.15625 14.15625 -11.023438 14.15625 -12.171875 C 14.15625 -13.347656 13.769531 -14.242188 13 -14.859375 C 12.226562 -15.484375 11.210938 -15.796875 9.953125 -15.796875 C 8.679688 -15.796875 7.65625 -15.484375 6.875 -14.859375 C 6.09375 -14.234375 5.703125 -13.335938 5.703125 -12.171875 C 5.703125 -11.066406 6.070312 -10.207031 6.8125 -9.59375 C 7.5625 -8.988281 8.609375 -8.6875 9.953125 -8.6875 Z M 9.953125 -8.6875 "/></g></g><path style=" stroke:none;fill-rule:nonzero;fill:#ff6d4d;fill-opacity:1;" d="M 232.1875 11.828125 C 232.699219 11.933594 233.167969 12.132812 233.597656 12.429688 C 234.03125 12.722656 234.386719 13.085938 234.675781 13.523438 C 234.960938 13.957031 235.152344 14.433594 235.25 14.945312 C 235.347656 15.457031 235.339844 15.96875 235.234375 16.480469 C 235.128906 16.988281 234.929688 17.460938 234.636719 17.890625 C 234.34375 18.324219 233.976562 18.679688 233.542969 18.96875 C 233.105469 19.253906 232.628906 19.445312 232.117188 19.542969 C 231.605469 19.636719 231.09375 19.632812 230.585938 19.527344 C 230.074219 19.421875 229.601562 19.222656 229.171875 18.929688 C 228.742188 18.632812 228.382812 18.269531 228.097656 17.832031 C 227.8125 17.398438 227.621094 16.921875 227.523438 16.410156 C 227.425781 15.898438 227.429688 15.386719 227.535156 14.875 C 227.640625 14.367188 227.84375 13.894531 228.136719 13.464844 C 228.429688 13.035156 228.792969 12.675781 229.230469 12.390625 C 229.667969 12.105469 230.140625 11.910156 230.652344 11.816406 C 231.164062 11.71875 231.675781 11.722656 232.1875 11.828125 Z M 232.1875 11.828125 "/><path style=" stroke:none;fill-rule:nonzero;fill:#ff6d4d;fill-opacity:1;" d="M 229.0625 32.527344 L 230.980469 30.554688 C 231.609375 29.90625 231.773438 28.933594 231.394531 28.113281 C 231.011719 27.292969 230.164062 26.792969 229.261719 26.851562 L 223.277344 27.257812 C 223.03125 27.632812 222.796875 28.015625 222.578125 28.402344 Z M 229.0625 32.527344 "/><path style=" stroke:none;fill-rule:nonzero;fill:#ff6d4d;fill-opacity:1;" d="M 219.328125 36.285156 C 218.488281 37.152344 218.511719 38.535156 219.375 39.375 C 219.800781 39.785156 220.347656 39.992188 220.898438 39.992188 C 221.46875 39.992188 222.035156 39.769531 222.464844 39.328125 L 225.386719 36.316406 L 221.621094 33.921875 Z M 219.328125 36.285156 "/><g clip-rule="nonzero" clip-path="url(#96b57ca934)"><path style=" stroke:none;fill-rule:nonzero;fill:#ff6d4d;fill-opacity:1;" d="M 234.234375 45.425781 L 233.460938 43.449219 L 230.027344 34.144531 C 229.863281 33.695312 229.554688 33.3125 229.148438 33.058594 L 222.046875 28.539062 C 222.660156 27.386719 223.4375 26.273438 224.222656 25.253906 C 224.988281 24.261719 225.761719 23.351562 226.398438 22.570312 C 227.660156 21.269531 228.0625 19.125 226.921875 18.09375 C 226.664062 17.863281 226.347656 17.667969 225.988281 17.523438 L 213.835938 9.433594 C 213.195312 9.007812 212.328125 9.179688 211.898438 9.824219 C 211.472656 10.464844 211.644531 11.335938 212.289062 11.761719 L 218.296875 15.761719 L 224.828125 18.597656 C 225.121094 18.722656 225.375 18.929688 225.566406 19.1875 C 225.9375 19.699219 226.011719 20.382812 225.761719 20.964844 C 225.570312 21.40625 225.21875 21.746094 224.769531 21.921875 C 224.324219 22.097656 223.835938 22.089844 223.394531 21.898438 L 219.800781 20.339844 C 218.664062 21.609375 217.824219 22.855469 217.046875 24.4375 C 216.714844 25.121094 216.394531 25.863281 216.066406 26.695312 C 215.222656 29.4375 216.789062 30.601562 218.210938 31.335938 C 218.355469 31.410156 218.492188 31.476562 218.621094 31.539062 L 226.183594 36.347656 L 229.183594 44.484375 C 229.480469 45.28125 230.042969 45.953125 230.78125 46.382812 L 232.542969 47.402344 L 234.429688 48.496094 C 234.753906 48.6875 235.191406 48.5 235.238281 48.125 C 235.246094 48.066406 235.242188 48.011719 235.222656 47.957031 Z M 234.234375 45.425781 "/></g><g clip-rule="nonzero" clip-path="url(#ea267281bb)"><path style=" stroke:none;fill-rule:nonzero;fill:#ff6d4d;fill-opacity:1;" d="M 225.390625 20.804688 C 225.699219 20.097656 225.375 19.273438 224.667969 18.964844 L 210.613281 12.867188 C 209.90625 12.558594 209.082031 12.886719 208.777344 13.59375 C 208.570312 14.0625 208.648438 14.585938 208.929688 14.972656 C 209.070312 15.167969 209.265625 15.328125 209.5 15.433594 L 223.554688 21.53125 C 224.261719 21.835938 225.085938 21.511719 225.390625 20.804688 Z M 225.390625 20.804688 "/></g></g></svg>