<svg xmlns="http://www.w3.org/2000/svg" xmlns:xlink="http://www.w3.org/1999/xlink" width="400" zoomAndPan="magnify" viewBox="0 0 300 60" height="80" preserveAspectRatio="xMidYMid meet" version="1.0"><defs><g/></defs><g fill="#ffffff" fill-opacity="1"><g transform="translate(6, 40.876465)"><g><path d="M 10.515625 0.296875 C 9.453125 0.296875 8.40625 0.164062 7.375 -0.09375 C 6.351562 -0.363281 5.421875 -0.769531 4.578125 -1.3125 C 3.734375 -1.851562 3.035156 -2.523438 2.484375 -3.328125 C 1.929688 -4.128906 1.597656 -5.070312 1.484375 -6.15625 L 5.953125 -6.15625 C 6.097656 -5.5 6.378906 -4.945312 6.796875 -4.5 C 7.210938 -4.050781 7.738281 -3.707031 8.375 -3.46875 C 9.019531 -3.226562 9.726562 -3.109375 10.5 -3.109375 C 11.289062 -3.109375 12.015625 -3.207031 12.671875 -3.40625 C 13.328125 -3.613281 13.851562 -3.914062 14.25 -4.3125 C 14.65625 -4.71875 14.859375 -5.222656 14.859375 -5.828125 C 14.859375 -6.378906 14.695312 -6.828125 14.375 -7.171875 C 14.050781 -7.523438 13.613281 -7.8125 13.0625 -8.03125 C 12.519531 -8.25 11.898438 -8.425781 11.203125 -8.5625 L 7.46875 -9.328125 C 5.84375 -9.628906 4.550781 -10.273438 3.59375 -11.265625 C 2.632812 -12.253906 2.144531 -13.578125 2.125 -15.234375 C 2.113281 -16.578125 2.472656 -17.742188 3.203125 -18.734375 C 3.929688 -19.722656 4.921875 -20.484375 6.171875 -21.015625 C 7.429688 -21.554688 8.84375 -21.828125 10.40625 -21.828125 C 12.269531 -21.828125 13.832031 -21.535156 15.09375 -20.953125 C 16.363281 -20.378906 17.328125 -19.597656 17.984375 -18.609375 C 18.648438 -17.617188 18.992188 -16.515625 19.015625 -15.296875 L 14.640625 -15.296875 C 14.566406 -16.054688 14.335938 -16.660156 13.953125 -17.109375 C 13.578125 -17.554688 13.09375 -17.878906 12.5 -18.078125 C 11.914062 -18.273438 11.242188 -18.375 10.484375 -18.375 C 9.910156 -18.375 9.382812 -18.304688 8.90625 -18.171875 C 8.4375 -18.046875 8.035156 -17.863281 7.703125 -17.625 C 7.378906 -17.394531 7.128906 -17.117188 6.953125 -16.796875 C 6.773438 -16.484375 6.6875 -16.128906 6.6875 -15.734375 C 6.6875 -15.109375 6.894531 -14.597656 7.3125 -14.203125 C 7.726562 -13.816406 8.507812 -13.503906 9.65625 -13.265625 L 13.34375 -12.5 C 14.664062 -12.238281 15.71875 -11.851562 16.5 -11.34375 C 17.28125 -10.84375 17.863281 -10.273438 18.25 -9.640625 C 18.644531 -9.003906 18.90625 -8.351562 19.03125 -7.6875 C 19.15625 -7.03125 19.21875 -6.421875 19.21875 -5.859375 C 19.21875 -4.691406 18.851562 -3.644531 18.125 -2.71875 C 17.394531 -1.789062 16.378906 -1.054688 15.078125 -0.515625 C 13.773438 0.0234375 12.253906 0.296875 10.515625 0.296875 Z M 10.515625 0.296875 "/></g></g></g><g fill="#ffffff" fill-opacity="1"><g transform="translate(26.250708, 40.876465)"><g><path d="M 11.265625 -12.390625 L 7.828125 -12.390625 L 7.859375 -4.171875 C 7.859375 -3.796875 7.90625 -3.515625 8 -3.328125 C 8.09375 -3.148438 8.238281 -3.03125 8.4375 -2.96875 C 8.644531 -2.914062 8.910156 -2.890625 9.234375 -2.890625 L 11.3125 -2.890625 L 11.3125 -0.203125 C 11.101562 -0.117188 10.785156 -0.0390625 10.359375 0.03125 C 9.941406 0.113281 9.359375 0.15625 8.609375 0.15625 C 7.253906 0.15625 6.207031 -0.015625 5.46875 -0.359375 C 4.726562 -0.703125 4.210938 -1.1875 3.921875 -1.8125 C 3.628906 -2.445312 3.484375 -3.175781 3.484375 -4 L 3.484375 -12.390625 L 0.984375 -12.390625 L 0.984375 -15.421875 L 3.640625 -15.421875 L 4.734375 -20.078125 L 7.828125 -20.078125 L 7.828125 -15.4375 L 11.265625 -15.4375 Z M 11.265625 -12.390625 "/></g></g></g><g fill="#ffffff" fill-opacity="1"><g transform="translate(38.702372, 40.876465)"><g><path d="M 7.546875 0.296875 C 6.828125 0.296875 6.125 0.1875 5.4375 -0.03125 C 4.75 -0.25 4.117188 -0.570312 3.546875 -1 C 2.984375 -1.425781 2.53125 -1.953125 2.1875 -2.578125 C 1.84375 -3.203125 1.671875 -3.925781 1.671875 -4.75 L 1.671875 -15.421875 L 6.03125 -15.421875 L 6.03125 -5.3125 C 6.03125 -4.59375 6.257812 -4.003906 6.71875 -3.546875 C 7.1875 -3.085938 7.875 -2.859375 8.78125 -2.859375 C 9.632812 -2.859375 10.3125 -3.078125 10.8125 -3.515625 C 11.320312 -3.960938 11.578125 -4.585938 11.578125 -5.390625 L 11.578125 -15.421875 L 15.890625 -15.421875 L 15.890625 0 L 12.609375 0 L 12.09375 -3.0625 C 11.914062 -2.15625 11.578125 -1.457031 11.078125 -0.96875 C 10.585938 -0.488281 10.023438 -0.160156 9.390625 0.015625 C 8.765625 0.203125 8.148438 0.296875 7.546875 0.296875 Z M 7.546875 0.296875 "/></g></g></g><g fill="#ffffff" fill-opacity="1"><g transform="translate(56.254014, 40.876465)"><g><path d="M 7.59375 0.296875 C 5.519531 0.296875 3.90625 -0.414062 2.75 -1.84375 C 1.601562 -3.269531 1.03125 -5.253906 1.03125 -7.796875 C 1.03125 -9.410156 1.265625 -10.804688 1.734375 -11.984375 C 2.203125 -13.171875 2.890625 -14.085938 3.796875 -14.734375 C 4.710938 -15.390625 5.832031 -15.71875 7.15625 -15.71875 C 7.71875 -15.71875 8.238281 -15.65625 8.71875 -15.53125 C 9.195312 -15.40625 9.632812 -15.234375 10.03125 -15.015625 C 10.4375 -14.796875 10.785156 -14.539062 11.078125 -14.25 C 11.378906 -13.96875 11.625 -13.660156 11.8125 -13.328125 L 11.8125 -22.15625 L 16.1875 -22.15625 L 16.1875 0 L 13.015625 0 L 12.53125 -3.15625 C 12.382812 -2.726562 12.1875 -2.3125 11.9375 -1.90625 C 11.695312 -1.5 11.378906 -1.128906 10.984375 -0.796875 C 10.597656 -0.460938 10.125 -0.195312 9.5625 0 C 9 0.195312 8.34375 0.296875 7.59375 0.296875 Z M 8.546875 -2.828125 C 9.640625 -2.828125 10.457031 -3.207031 11 -3.96875 C 11.539062 -4.738281 11.8125 -6.035156 11.8125 -7.859375 C 11.800781 -8.910156 11.675781 -9.785156 11.4375 -10.484375 C 11.195312 -11.179688 10.84375 -11.703125 10.375 -12.046875 C 9.90625 -12.390625 9.304688 -12.5625 8.578125 -12.5625 C 7.628906 -12.5625 6.84375 -12.195312 6.21875 -11.46875 C 5.59375 -10.75 5.28125 -9.546875 5.28125 -7.859375 C 5.28125 -6.140625 5.570312 -4.867188 6.15625 -4.046875 C 6.75 -3.234375 7.546875 -2.828125 8.546875 -2.828125 Z M 8.546875 -2.828125 "/></g></g></g><g fill="#ffffff" fill-opacity="1"><g transform="translate(74.297764, 40.876465)"><g><path d="M 4.265625 4.921875 C 3.210938 4.921875 2.46875 4.832031 2.03125 4.65625 C 1.601562 4.488281 1.390625 4.40625 1.390625 4.40625 L 1.390625 1.625 L 2.90625 1.6875 C 3.570312 1.726562 4.109375 1.695312 4.515625 1.59375 C 4.921875 1.488281 5.226562 1.347656 5.4375 1.171875 C 5.65625 1.003906 5.8125 0.828125 5.90625 0.640625 C 6 0.460938 6.0625 0.316406 6.09375 0.203125 L 6.390625 -0.640625 L 0.390625 -15.421875 L 4.703125 -15.421875 L 8.390625 -5.375 L 12.140625 -15.421875 L 16.390625 -15.421875 L 10.140625 0.09375 C 9.609375 1.40625 9.039062 2.40625 8.4375 3.09375 C 7.84375 3.789062 7.195312 4.269531 6.5 4.53125 C 5.8125 4.789062 5.066406 4.921875 4.265625 4.921875 Z M 4.265625 4.921875 "/></g></g></g><g fill="#82ecff" fill-opacity="1"><g transform="translate(91.078121, 40.876465)"><g><path d="M 1.53125 0 L 3.71875 -15.421875 L 6.328125 -15.421875 L 4.15625 0 Z M 4.09375 -18.6875 L 4.484375 -21.546875 L 7.25 -21.546875 L 6.84375 -18.6875 Z M 4.09375 -18.6875 "/></g></g></g><g fill="#82ecff" fill-opacity="1"><g transform="translate(99.145633, 40.876465)"><g><path d="M 1.234375 0 L 3.46875 -15.421875 L 6.0625 -15.421875 L 5.78125 -13.28125 C 6.113281 -13.71875 6.507812 -14.113281 6.96875 -14.46875 C 7.4375 -14.820312 7.972656 -15.101562 8.578125 -15.3125 C 9.191406 -15.53125 9.882812 -15.640625 10.65625 -15.640625 C 11.59375 -15.640625 12.414062 -15.425781 13.125 -15 C 13.84375 -14.582031 14.375 -13.96875 14.71875 -13.15625 C 15.0625 -12.34375 15.144531 -11.335938 14.96875 -10.140625 L 13.515625 0 L 10.8125 0 L 12.25 -9.875 C 12.425781 -11 12.257812 -11.859375 11.75 -12.453125 C 11.238281 -13.054688 10.519531 -13.359375 9.59375 -13.359375 C 8.945312 -13.359375 8.320312 -13.25 7.71875 -13.03125 C 7.113281 -12.8125 6.601562 -12.476562 6.1875 -12.03125 C 5.78125 -11.582031 5.523438 -11.023438 5.421875 -10.359375 L 3.921875 0 Z M 1.234375 0 "/></g></g></g><g fill="#ffffff" fill-opacity="1"><g transform="translate(115.863276, 40.876465)"><g><path d="M 0.5625 -17.6875 L 0.5625 -21.5625 L 17.828125 -21.5625 L 17.828125 -17.6875 L 11.453125 -17.6875 L 11.453125 0 L 7.078125 0 L 7.078125 -17.6875 Z M 0.5625 -17.6875 "/></g></g></g><g fill="#ffffff" fill-opacity="1"><g transform="translate(134.235094, 40.876465)"><g><path d="M 1.859375 0 L 1.859375 -22.15625 L 6.1875 -22.15625 L 6.1875 -13.203125 C 6.4375 -13.554688 6.75 -13.910156 7.125 -14.265625 C 7.507812 -14.617188 7.984375 -14.914062 8.546875 -15.15625 C 9.109375 -15.394531 9.800781 -15.515625 10.625 -15.515625 C 11.601562 -15.515625 12.5 -15.320312 13.3125 -14.9375 C 14.125 -14.550781 14.773438 -13.992188 15.265625 -13.265625 C 15.753906 -12.546875 16 -11.664062 16 -10.625 L 16 0 L 11.640625 0 L 11.640625 -9.984375 C 11.640625 -10.671875 11.382812 -11.203125 10.875 -11.578125 C 10.375 -11.953125 9.765625 -12.140625 9.046875 -12.140625 C 8.585938 -12.140625 8.140625 -12.054688 7.703125 -11.890625 C 7.265625 -11.722656 6.90625 -11.46875 6.625 -11.125 C 6.351562 -10.78125 6.21875 -10.351562 6.21875 -9.84375 L 6.21875 0 Z M 1.859375 0 "/></g></g></g><g fill="#ffffff" fill-opacity="1"><g transform="translate(151.801648, 40.876465)"><g><path d="M 6.34375 0.296875 C 5.351562 0.296875 4.460938 0.113281 3.671875 -0.25 C 2.890625 -0.625 2.269531 -1.160156 1.8125 -1.859375 C 1.363281 -2.554688 1.140625 -3.410156 1.140625 -4.421875 C 1.140625 -6.109375 1.769531 -7.390625 3.03125 -8.265625 C 4.289062 -9.148438 6.285156 -9.609375 9.015625 -9.640625 L 10.9375 -9.671875 L 10.9375 -10.59375 C 10.9375 -11.289062 10.726562 -11.832031 10.3125 -12.21875 C 9.894531 -12.601562 9.253906 -12.789062 8.390625 -12.78125 C 7.753906 -12.769531 7.148438 -12.617188 6.578125 -12.328125 C 6.015625 -12.046875 5.625 -11.546875 5.40625 -10.828125 L 1.796875 -10.828125 C 1.847656 -11.941406 2.164062 -12.859375 2.75 -13.578125 C 3.34375 -14.296875 4.144531 -14.832031 5.15625 -15.1875 C 6.164062 -15.539062 7.3125 -15.71875 8.59375 -15.71875 C 10.175781 -15.71875 11.441406 -15.519531 12.390625 -15.125 C 13.347656 -14.738281 14.039062 -14.175781 14.46875 -13.4375 C 14.894531 -12.707031 15.109375 -11.84375 15.109375 -10.84375 L 15.109375 0 L 11.46875 0 L 11.109375 -2.65625 C 10.585938 -1.539062 9.929688 -0.769531 9.140625 -0.34375 C 8.347656 0.0820312 7.414062 0.296875 6.34375 0.296875 Z M 7.796875 -2.5625 C 8.191406 -2.5625 8.578125 -2.632812 8.953125 -2.78125 C 9.328125 -2.925781 9.660156 -3.117188 9.953125 -3.359375 C 10.242188 -3.609375 10.476562 -3.882812 10.65625 -4.1875 C 10.84375 -4.5 10.9375 -4.816406 10.9375 -5.140625 L 10.9375 -7.421875 L 9.359375 -7.390625 C 8.640625 -7.378906 7.960938 -7.289062 7.328125 -7.125 C 6.703125 -6.96875 6.195312 -6.703125 5.8125 -6.328125 C 5.4375 -5.960938 5.25 -5.46875 5.25 -4.84375 C 5.25 -4.125 5.492188 -3.5625 5.984375 -3.15625 C 6.484375 -2.757812 7.085938 -2.5625 7.796875 -2.5625 Z M 7.796875 -2.5625 "/></g></g></g><g fill="#ffffff" fill-opacity="1"><g transform="translate(168.90593, 40.876465)"><g><path d="M 6.25 -15.421875 L 6.25 0 L 2.09375 0 L 2.09375 -15.421875 Z M 6.296875 -21.546875 L 6.296875 -17.625 L 2.0625 -17.625 L 2.0625 -21.546875 Z M 6.296875 -21.546875 "/></g></g></g><g fill="#ffffff" fill-opacity="1"><g transform="translate(177.331322, 40.876465)"><g><path d="M 6.78125 0.265625 C 5.644531 0.265625 4.742188 0.132812 4.078125 -0.125 C 3.421875 -0.394531 2.929688 -0.75 2.609375 -1.1875 C 2.285156 -1.632812 2.078125 -2.128906 1.984375 -2.671875 C 1.898438 -3.210938 1.859375 -3.765625 1.859375 -4.328125 L 1.859375 -22.15625 L 6.125 -22.15625 L 6.125 -4.859375 C 6.125 -4.296875 6.242188 -3.835938 6.484375 -3.484375 C 6.734375 -3.128906 7.195312 -2.910156 7.875 -2.828125 L 8.609375 -2.78125 L 8.609375 -0.109375 C 8.304688 -0.00390625 8 0.0820312 7.6875 0.15625 C 7.382812 0.226562 7.082031 0.265625 6.78125 0.265625 Z M 6.78125 0.265625 "/></g></g></g><g fill="#ffffff" fill-opacity="1"><g transform="translate(186.875099, 40.876465)"><g><path d="M 6.34375 0.296875 C 5.351562 0.296875 4.460938 0.113281 3.671875 -0.25 C 2.890625 -0.625 2.269531 -1.160156 1.8125 -1.859375 C 1.363281 -2.554688 1.140625 -3.410156 1.140625 -4.421875 C 1.140625 -6.109375 1.769531 -7.390625 3.03125 -8.265625 C 4.289062 -9.148438 6.285156 -9.609375 9.015625 -9.640625 L 10.9375 -9.671875 L 10.9375 -10.59375 C 10.9375 -11.289062 10.726562 -11.832031 10.3125 -12.21875 C 9.894531 -12.601562 9.253906 -12.789062 8.390625 -12.78125 C 7.753906 -12.769531 7.148438 -12.617188 6.578125 -12.328125 C 6.015625 -12.046875 5.625 -11.546875 5.40625 -10.828125 L 1.796875 -10.828125 C 1.847656 -11.941406 2.164062 -12.859375 2.75 -13.578125 C 3.34375 -14.296875 4.144531 -14.832031 5.15625 -15.1875 C 6.164062 -15.539062 7.3125 -15.71875 8.59375 -15.71875 C 10.175781 -15.71875 11.441406 -15.519531 12.390625 -15.125 C 13.347656 -14.738281 14.039062 -14.175781 14.46875 -13.4375 C 14.894531 -12.707031 15.109375 -11.84375 15.109375 -10.84375 L 15.109375 0 L 11.46875 0 L 11.109375 -2.65625 C 10.585938 -1.539062 9.929688 -0.769531 9.140625 -0.34375 C 8.347656 0.0820312 7.414062 0.296875 6.34375 0.296875 Z M 7.796875 -2.5625 C 8.191406 -2.5625 8.578125 -2.632812 8.953125 -2.78125 C 9.328125 -2.925781 9.660156 -3.117188 9.953125 -3.359375 C 10.242188 -3.609375 10.476562 -3.882812 10.65625 -4.1875 C 10.84375 -4.5 10.9375 -4.816406 10.9375 -5.140625 L 10.9375 -7.421875 L 9.359375 -7.390625 C 8.640625 -7.378906 7.960938 -7.289062 7.328125 -7.125 C 6.703125 -6.96875 6.195312 -6.703125 5.8125 -6.328125 C 5.4375 -5.960938 5.25 -5.46875 5.25 -4.84375 C 5.25 -4.125 5.492188 -3.5625 5.984375 -3.15625 C 6.484375 -2.757812 7.085938 -2.5625 7.796875 -2.5625 Z M 7.796875 -2.5625 "/></g></g></g><g fill="#ffffff" fill-opacity="1"><g transform="translate(203.979381, 40.876465)"><g><path d="M 1.859375 0 L 1.859375 -15.421875 L 6.140625 -15.421875 L 6.140625 -13.25 C 6.378906 -13.625 6.691406 -13.988281 7.078125 -14.34375 C 7.460938 -14.695312 7.945312 -14.988281 8.53125 -15.21875 C 9.113281 -15.445312 9.8125 -15.5625 10.625 -15.5625 C 11.5625 -15.5625 12.441406 -15.375 13.265625 -15 C 14.085938 -14.632812 14.75 -14.054688 15.25 -13.265625 C 15.757812 -12.472656 16.015625 -11.441406 16.015625 -10.171875 L 16.015625 0 L 11.65625 0 L 11.65625 -9.640625 C 11.65625 -10.472656 11.40625 -11.097656 10.90625 -11.515625 C 10.414062 -11.929688 9.8125 -12.140625 9.09375 -12.140625 C 8.613281 -12.140625 8.148438 -12.054688 7.703125 -11.890625 C 7.265625 -11.722656 6.90625 -11.46875 6.625 -11.125 C 6.351562 -10.789062 6.21875 -10.375 6.21875 -9.875 L 6.21875 0 Z M 1.859375 0 "/></g></g></g><g fill="#ffffff" fill-opacity="1"><g transform="translate(221.665239, 40.876465)"><g><path d="M 7.59375 0.296875 C 5.519531 0.296875 3.90625 -0.414062 2.75 -1.84375 C 1.601562 -3.269531 1.03125 -5.253906 1.03125 -7.796875 C 1.03125 -9.410156 1.265625 -10.804688 1.734375 -11.984375 C 2.203125 -13.171875 2.890625 -14.085938 3.796875 -14.734375 C 4.710938 -15.390625 5.832031 -15.71875 7.15625 -15.71875 C 7.71875 -15.71875 8.238281 -15.65625 8.71875 -15.53125 C 9.195312 -15.40625 9.632812 -15.234375 10.03125 -15.015625 C 10.4375 -14.796875 10.785156 -14.539062 11.078125 -14.25 C 11.378906 -13.96875 11.625 -13.660156 11.8125 -13.328125 L 11.8125 -22.15625 L 16.1875 -22.15625 L 16.1875 0 L 13.015625 0 L 12.53125 -3.15625 C 12.382812 -2.726562 12.1875 -2.3125 11.9375 -1.90625 C 11.695312 -1.5 11.378906 -1.128906 10.984375 -0.796875 C 10.597656 -0.460938 10.125 -0.195312 9.5625 0 C 9 0.195312 8.34375 0.296875 7.59375 0.296875 Z M 8.546875 -2.828125 C 9.640625 -2.828125 10.457031 -3.207031 11 -3.96875 C 11.539062 -4.738281 11.8125 -6.035156 11.8125 -7.859375 C 11.800781 -8.910156 11.675781 -9.785156 11.4375 -10.484375 C 11.195312 -11.179688 10.84375 -11.703125 10.375 -12.046875 C 9.90625 -12.390625 9.304688 -12.5625 8.578125 -12.5625 C 7.628906 -12.5625 6.84375 -12.195312 6.21875 -11.46875 C 5.59375 -10.75 5.28125 -9.546875 5.28125 -7.859375 C 5.28125 -6.140625 5.570312 -4.867188 6.15625 -4.046875 C 6.75 -3.234375 7.546875 -2.828125 8.546875 -2.828125 Z M 8.546875 -2.828125 "/></g></g></g><g fill="#82ecff" fill-opacity="1"><g transform="translate(239.71874, 40.876465)"><g><path d="M 1.640625 0 L 1.640625 -3.515625 L 4.921875 -3.515625 L 4.921875 0 Z M 1.640625 0 "/></g></g></g><g fill="#82ecff" fill-opacity="1"><g transform="translate(246.444135, 40.876465)"><g><path d="M 8.40625 0.296875 C 6.988281 0.296875 5.75 -0.00390625 4.6875 -0.609375 C 3.625 -1.222656 2.796875 -2.117188 2.203125 -3.296875 C 1.617188 -4.484375 1.328125 -5.9375 1.328125 -7.65625 C 1.328125 -9.257812 1.597656 -10.664062 2.140625 -11.875 C 2.691406 -13.09375 3.492188 -14.035156 4.546875 -14.703125 C 5.609375 -15.378906 6.894531 -15.71875 8.40625 -15.71875 C 9.832031 -15.71875 11.066406 -15.40625 12.109375 -14.78125 C 13.160156 -14.164062 13.972656 -13.253906 14.546875 -12.046875 C 15.128906 -10.847656 15.421875 -9.382812 15.421875 -7.65625 C 15.421875 -6.082031 15.15625 -4.695312 14.625 -3.5 C 14.09375 -2.3125 13.304688 -1.378906 12.265625 -0.703125 C 11.222656 -0.0351562 9.9375 0.296875 8.40625 0.296875 Z M 8.40625 -1.875 C 9.332031 -1.875 10.113281 -2.109375 10.75 -2.578125 C 11.382812 -3.046875 11.863281 -3.71875 12.1875 -4.59375 C 12.519531 -5.46875 12.6875 -6.503906 12.6875 -7.703125 C 12.6875 -8.804688 12.539062 -9.796875 12.25 -10.671875 C 11.96875 -11.554688 11.507812 -12.257812 10.875 -12.78125 C 10.25 -13.300781 9.425781 -13.5625 8.40625 -13.5625 C 7.476562 -13.5625 6.691406 -13.328125 6.046875 -12.859375 C 5.398438 -12.398438 4.910156 -11.734375 4.578125 -10.859375 C 4.242188 -9.984375 4.078125 -8.929688 4.078125 -7.703125 C 4.078125 -6.617188 4.222656 -5.632812 4.515625 -4.75 C 4.816406 -3.875 5.285156 -3.175781 5.921875 -2.65625 C 6.554688 -2.132812 7.382812 -1.875 8.40625 -1.875 Z M 8.40625 -1.875 "/></g></g></g><g fill="#82ecff" fill-opacity="1"><g transform="translate(263.205437, 40.876465)"><g><path d="M 2.28125 0 L 2.28125 -15.421875 L 4.90625 -15.421875 L 4.90625 -12.453125 C 5.164062 -13.191406 5.53125 -13.800781 6 -14.28125 C 6.46875 -14.757812 7 -15.117188 7.59375 -15.359375 C 8.195312 -15.597656 8.820312 -15.71875 9.46875 -15.71875 C 9.695312 -15.71875 9.921875 -15.703125 10.140625 -15.671875 C 10.359375 -15.640625 10.53125 -15.59375 10.65625 -15.53125 L 10.65625 -12.859375 C 10.5 -12.921875 10.300781 -12.960938 10.0625 -12.984375 C 9.832031 -13.015625 9.640625 -13.03125 9.484375 -13.03125 C 8.867188 -13.070312 8.289062 -13.035156 7.75 -12.921875 C 7.21875 -12.804688 6.75 -12.609375 6.34375 -12.328125 C 5.9375 -12.054688 5.613281 -11.691406 5.375 -11.234375 C 5.144531 -10.785156 5.03125 -10.238281 5.03125 -9.59375 L 5.03125 0 Z M 2.28125 0 "/></g></g></g><g fill="#82ecff" fill-opacity="1"><g transform="translate(274.762379, 40.876465)"><g><path d="M 8.78125 5.09375 C 6.351562 5.09375 4.46875 4.742188 3.125 4.046875 C 1.78125 3.347656 1.109375 2.347656 1.109375 1.046875 C 1.109375 0.484375 1.234375 0.0078125 1.484375 -0.375 C 1.742188 -0.769531 2.050781 -1.097656 2.40625 -1.359375 C 2.769531 -1.617188 3.101562 -1.820312 3.40625 -1.96875 C 3.71875 -2.125 3.921875 -2.238281 4.015625 -2.3125 C 3.847656 -2.40625 3.632812 -2.523438 3.375 -2.671875 C 3.125 -2.828125 2.90625 -3.03125 2.71875 -3.28125 C 2.53125 -3.53125 2.4375 -3.851562 2.4375 -4.25 C 2.4375 -4.738281 2.660156 -5.1875 3.109375 -5.59375 C 3.566406 -6 4.242188 -6.300781 5.140625 -6.5 C 4.234375 -6.957031 3.523438 -7.5625 3.015625 -8.3125 C 2.515625 -9.070312 2.265625 -9.894531 2.265625 -10.78125 C 2.265625 -11.78125 2.535156 -12.644531 3.078125 -13.375 C 3.617188 -14.113281 4.390625 -14.675781 5.390625 -15.0625 C 6.398438 -15.457031 7.597656 -15.65625 8.984375 -15.65625 C 9.984375 -15.65625 10.828125 -15.535156 11.515625 -15.296875 C 12.203125 -15.066406 12.835938 -14.738281 13.421875 -14.3125 C 13.578125 -14.382812 13.828125 -14.492188 14.171875 -14.640625 C 14.515625 -14.785156 14.894531 -14.941406 15.3125 -15.109375 C 15.726562 -15.273438 16.117188 -15.4375 16.484375 -15.59375 C 16.847656 -15.75 17.140625 -15.863281 17.359375 -15.9375 L 17.34375 -13.390625 L 14.640625 -12.890625 C 14.796875 -12.566406 14.921875 -12.21875 15.015625 -11.84375 C 15.109375 -11.46875 15.15625 -11.113281 15.15625 -10.78125 C 15.15625 -9.875 14.914062 -9.050781 14.4375 -8.3125 C 13.96875 -7.582031 13.253906 -7 12.296875 -6.5625 C 11.347656 -6.125 10.15625 -5.90625 8.71875 -5.90625 C 8.601562 -5.90625 8.453125 -5.90625 8.265625 -5.90625 C 8.085938 -5.914062 7.929688 -5.925781 7.796875 -5.9375 C 6.742188 -5.90625 6.019531 -5.785156 5.625 -5.578125 C 5.226562 -5.378906 5.03125 -5.15625 5.03125 -4.90625 C 5.03125 -4.613281 5.253906 -4.410156 5.703125 -4.296875 C 6.148438 -4.191406 6.910156 -4.101562 7.984375 -4.03125 C 8.367188 -4.007812 8.847656 -3.984375 9.421875 -3.953125 C 9.992188 -3.921875 10.625 -3.878906 11.3125 -3.828125 C 12.9375 -3.734375 14.1875 -3.320312 15.0625 -2.59375 C 15.9375 -1.863281 16.375 -0.882812 16.375 0.34375 C 16.375 1.75 15.75 2.890625 14.5 3.765625 C 13.25 4.648438 11.34375 5.09375 8.78125 5.09375 Z M 9.28125 3.328125 C 10.695312 3.328125 11.78125 3.113281 12.53125 2.6875 C 13.289062 2.257812 13.671875 1.613281 13.671875 0.75 C 13.671875 0.132812 13.441406 -0.367188 12.984375 -0.765625 C 12.523438 -1.160156 11.820312 -1.390625 10.875 -1.453125 L 6.546875 -1.734375 C 6.160156 -1.753906 5.757812 -1.65625 5.34375 -1.4375 C 4.925781 -1.226562 4.566406 -0.929688 4.265625 -0.546875 C 3.972656 -0.171875 3.828125 0.253906 3.828125 0.734375 C 3.828125 1.546875 4.269531 2.179688 5.15625 2.640625 C 6.050781 3.097656 7.425781 3.328125 9.28125 3.328125 Z M 8.796875 -7.6875 C 9.910156 -7.6875 10.804688 -7.941406 11.484375 -8.453125 C 12.171875 -8.972656 12.515625 -9.738281 12.515625 -10.75 C 12.515625 -11.789062 12.171875 -12.582031 11.484375 -13.125 C 10.804688 -13.675781 9.910156 -13.953125 8.796875 -13.953125 C 7.671875 -13.953125 6.765625 -13.675781 6.078125 -13.125 C 5.390625 -12.570312 5.046875 -11.78125 5.046875 -10.75 C 5.046875 -9.78125 5.375 -9.023438 6.03125 -8.484375 C 6.6875 -7.953125 7.609375 -7.6875 8.796875 -7.6875 Z M 8.796875 -7.6875 "/></g></g></g></svg>